<svg width="22" height="22" viewBox="0 0 22 22" fill="none" xmlns="http://www.w3.org/2000/svg">
<g clip-path="url(#clip0_223_11)">
<rect width="22" height="22" rx="11" fill="url(#paint0_linear_223_11)"/>
<g opacity="0.7" clip-path="url(#clip1_223_11)">
<g clip-path="url(#clip2_223_11)">
<path d="M14.9709 9.03335L9.97085 14.0334C9.91226 14.0919 9.83283 14.1247 9.75002 14.1247C9.6672 14.1247 9.58778 14.0919 9.52918 14.0334L7.34168 11.8459C7.28648 11.7866 7.25643 11.7083 7.25786 11.6273C7.25929 11.5463 7.29209 11.4691 7.34934 11.4118C7.4066 11.3546 7.48384 11.3218 7.5648 11.3204C7.64576 11.3189 7.72411 11.349 7.78335 11.4042L9.75002 13.3709L14.5292 8.59168C14.5884 8.53648 14.6668 8.50643 14.7477 8.50786C14.8287 8.50929 14.9059 8.54209 14.9632 8.59934C15.0204 8.6566 15.0532 8.73384 15.0547 8.8148C15.0561 8.89576 15.0261 8.97411 14.9709 9.03335Z" fill="white"/>
</g>
</g>
<mask id="path-3-inside-1_223_11" fill="white">
<path d="M0 11C0 4.92487 4.92487 0 11 0C17.0751 0 22 4.92487 22 11C22 17.0751 17.0751 22 11 22C4.92487 22 0 17.0751 0 11Z"/>
</mask>
<path d="M11 21C5.47715 21 1 16.5228 1 11H-1C-1 17.6274 4.37258 23 11 23V21ZM21 11C21 16.5228 16.5228 21 11 21V23C17.6274 23 23 17.6274 23 11H21ZM11 1C16.5228 1 21 5.47715 21 11H23C23 4.37258 17.6274 -1 11 -1V1ZM11 -1C4.37258 -1 -1 4.37258 -1 11H1C1 5.47715 5.47715 1 11 1V-1Z" fill="white" fill-opacity="0.1" mask="url(#path-3-inside-1_223_11)"/>
</g>
<defs>
<linearGradient id="paint0_linear_223_11" x1="22" y1="11" x2="0" y2="11" gradientUnits="userSpaceOnUse">
<stop stop-color="white" stop-opacity="0.05"/>
<stop offset="0.5" stop-color="white" stop-opacity="0.15"/>
<stop offset="1" stop-color="white" stop-opacity="0.05"/>
</linearGradient>
<clipPath id="clip0_223_11">
<rect width="22" height="22" rx="11" fill="white"/>
</clipPath>
<clipPath id="clip1_223_11">
<rect width="10" height="10" fill="white" transform="translate(6 6)"/>
</clipPath>
<clipPath id="clip2_223_11">
<rect width="10" height="10" fill="white" transform="translate(6 6)"/>
</clipPath>
</defs>
</svg>
