<svg width="13" height="13" viewBox="0 0 13 13" fill="none" xmlns="http://www.w3.org/2000/svg">
<g clip-path="url(#clip0_134_381)">
<g clip-path="url(#clip1_134_381)">
<path d="M10.2415 6.24L7.8235 5.3465L6.9335 2.9265C6.88073 2.7832 6.78527 2.65954 6.66001 2.57218C6.53475 2.48483 6.38571 2.438 6.233 2.438C6.08029 2.438 5.93126 2.48483 5.806 2.57218C5.68074 2.65954 5.58528 2.7832 5.5325 2.9265L4.636 5.3465L2.2165 6.2365C2.07299 6.28906 1.94908 6.38444 1.86154 6.50972C1.774 6.63501 1.72705 6.78416 1.72705 6.937C1.72705 7.08984 1.774 7.23899 1.86154 7.36428C1.94908 7.48957 2.07299 7.58494 2.2165 7.6375L4.63651 8.534L5.52651 10.9535C5.57928 11.0968 5.67474 11.2205 5.8 11.3078C5.92526 11.3952 6.0743 11.442 6.22701 11.442C6.37971 11.442 6.52875 11.3952 6.65401 11.3078C6.77927 11.2205 6.87473 11.0968 6.92751 10.9535L7.8235 8.5335L10.2435 7.6435C10.3868 7.59072 10.5105 7.49527 10.5978 7.37001C10.6852 7.24475 10.732 7.09571 10.732 6.943C10.732 6.79029 10.6852 6.64126 10.5978 6.516C10.5105 6.39074 10.3868 6.29528 10.2435 6.2425L10.2415 6.2395V6.24ZM7.4015 7.888C7.35066 7.90676 7.30448 7.93633 7.26615 7.97465C7.22783 8.01298 7.19827 8.05915 7.1795 8.11L6.2295 10.683L5.28201 8.112C5.26327 8.06058 5.23352 8.01389 5.19482 7.97519C5.15612 7.93649 5.10943 7.90673 5.05801 7.888L2.487 6.94L5.05801 5.992C5.10943 5.97327 5.15612 5.94351 5.19482 5.90482C5.23352 5.86612 5.26327 5.81942 5.28201 5.768L6.23 3.197L7.178 5.768C7.19671 5.81894 7.22624 5.86522 7.26457 5.90363C7.3029 5.94205 7.34911 5.97169 7.4 5.9905L9.97301 6.94L7.4015 7.888ZM7.73 2.065C7.73 1.96555 7.76951 1.87016 7.83984 1.79984C7.91017 1.72951 8.00555 1.69 8.105 1.69H8.855V0.940002C8.855 0.840546 8.89451 0.745164 8.96484 0.674837C9.03517 0.604511 9.13055 0.565002 9.23 0.565002C9.32946 0.565002 9.42484 0.604511 9.49517 0.674837C9.5655 0.745164 9.605 0.840546 9.605 0.940002V1.69H10.355C10.4545 1.69 10.5498 1.72951 10.6202 1.79984C10.6905 1.87016 10.73 1.96555 10.73 2.065C10.73 2.16446 10.6905 2.25984 10.6202 2.33017C10.5498 2.40049 10.4545 2.44 10.355 2.44H9.605V3.19C9.605 3.28946 9.5655 3.38484 9.49517 3.45517C9.42484 3.52549 9.32946 3.565 9.23 3.565C9.13055 3.565 9.03517 3.52549 8.96484 3.45517C8.89451 3.38484 8.855 3.28946 8.855 3.19V2.44H8.105C8.00555 2.44 7.91017 2.40049 7.83984 2.33017C7.76951 2.25984 7.73 2.16446 7.73 2.065ZM12.605 4.315C12.605 4.41446 12.5655 4.50984 12.4952 4.58017C12.4248 4.65049 12.3295 4.69 12.23 4.69H11.855V5.065C11.855 5.16446 11.8155 5.25984 11.7452 5.33017C11.6748 5.40049 11.5795 5.44 11.48 5.44C11.3805 5.44 11.2852 5.40049 11.2148 5.33017C11.1445 5.25984 11.105 5.16446 11.105 5.065V4.69H10.73C10.6305 4.69 10.5352 4.65049 10.4648 4.58017C10.3945 4.50984 10.355 4.41446 10.355 4.315C10.355 4.21555 10.3945 4.12016 10.4648 4.04984C10.5352 3.97951 10.6305 3.94 10.73 3.94H11.105V3.565C11.105 3.46555 11.1445 3.37016 11.2148 3.29984C11.2852 3.22951 11.3805 3.19 11.48 3.19C11.5795 3.19 11.6748 3.22951 11.7452 3.29984C11.8155 3.37016 11.855 3.46555 11.855 3.565V3.94H12.23C12.3295 3.94 12.4248 3.97951 12.4952 4.04984C12.5655 4.12016 12.605 4.21555 12.605 4.315Z" fill="white"/>
</g>
</g>
<defs>
<clipPath id="clip0_134_381">
<rect width="12" height="12" fill="white" transform="translate(0.97998 0.190002)"/>
</clipPath>
<clipPath id="clip1_134_381">
<rect width="12" height="12" fill="white" transform="translate(0.97998 0.190002)"/>
</clipPath>
</defs>
</svg>
