<svg width="24" height="25" viewBox="0 0 24 25" fill="none" xmlns="http://www.w3.org/2000/svg">
<path d="M13.525 5.22597C13.5505 5.1307 13.5946 5.04141 13.6547 4.9632C13.7147 4.88498 13.7896 4.81938 13.8751 4.77015C13.9605 4.72092 14.0549 4.68903 14.1527 4.6763C14.2505 4.66357 14.3498 4.67025 14.445 4.69597C15.8352 5.05876 17.1036 5.78555 18.1195 6.80148C19.1354 7.81741 19.8622 9.08578 20.225 10.476C20.2651 10.6274 20.2569 10.7875 20.2015 10.934C20.1461 11.0805 20.0463 11.206 19.916 11.2929C19.7857 11.3799 19.6316 11.4239 19.475 11.4189C19.3185 11.4139 19.1674 11.3601 19.043 11.265C18.9118 11.1642 18.8176 11.0229 18.775 10.863C18.4791 9.72807 17.886 8.69261 17.0567 7.8633C16.2274 7.03399 15.1919 6.44083 14.057 6.14497C13.9616 6.11966 13.8721 6.07576 13.7936 6.01578C13.7152 5.95581 13.6494 5.88093 13.5999 5.79545C13.5505 5.70998 13.5185 5.61558 13.5056 5.51768C13.4927 5.41978 13.4993 5.32031 13.525 5.22497V5.22597ZM13.307 9.14497C14.6 9.48997 15.43 10.32 15.775 11.613C15.8004 11.7082 15.8443 11.7974 15.9042 11.8757C15.9642 11.9539 16.0389 12.0196 16.1242 12.0689C16.2095 12.1183 16.3037 12.1504 16.4013 12.1633C16.499 12.1763 16.5983 12.1699 16.6935 12.1445C16.7887 12.1191 16.878 12.0751 16.9562 12.0152C17.0345 11.9553 17.1001 11.8806 17.1495 11.7953C17.1988 11.71 17.2309 11.6158 17.2439 11.5181C17.2568 11.4205 17.2504 11.3212 17.225 11.226C16.745 9.42997 15.49 8.17597 13.695 7.69597C13.5029 7.64451 13.2981 7.6715 13.1259 7.77099C12.9536 7.87048 12.828 8.03432 12.7765 8.22647C12.7251 8.41862 12.752 8.62333 12.8515 8.79559C12.951 8.96784 13.1149 9.09351 13.307 9.14497ZM20.989 18.084C20.8217 19.3542 20.1977 20.5202 19.2336 21.3641C18.2695 22.208 17.0313 22.6722 15.75 22.67C8.30601 22.67 2.25001 16.614 2.25001 9.16997C2.24732 7.88848 2.71131 6.64985 3.55529 5.68552C4.39926 4.72119 5.56547 4.09714 6.83601 3.92997C7.15729 3.89081 7.48261 3.95661 7.76341 4.11756C8.04421 4.27851 8.26542 4.52596 8.39401 4.82297L10.374 9.24297V9.25397C10.4726 9.4813 10.5133 9.72952 10.4926 9.97644C10.4718 10.2234 10.3902 10.4613 10.255 10.669C10.2384 10.6937 10.2207 10.7177 10.202 10.741L8.25001 13.056C8.95201 14.483 10.445 15.962 11.89 16.666L14.172 14.725C14.3826 14.5658 14.6314 14.465 14.8933 14.4327C15.1553 14.4004 15.4211 14.4378 15.664 14.541L15.677 14.546L20.093 16.526C20.3906 16.6541 20.6387 16.8751 20.8002 17.1559C20.9617 17.4368 21.0279 17.7623 20.989 18.084ZM19.5 17.896H19.49L15.083 15.923L12.801 17.864C12.7787 17.8829 12.7553 17.9006 12.731 17.917C12.5152 18.0608 12.2658 18.1463 12.0071 18.165C11.7484 18.1838 11.4893 18.1352 11.255 18.024C9.49901 17.175 7.74801 15.438 6.89901 13.701C6.78655 13.4683 6.73611 13.2105 6.75258 12.9526C6.76905 12.6947 6.85187 12.4454 6.99301 12.229C7.00878 12.2036 7.0265 12.1796 7.04601 12.157L9.00001 9.83997L7.03101 5.43397V5.42297C6.12197 5.54166 5.28736 5.98761 4.68343 6.67732C4.07949 7.36703 3.74765 8.25322 3.75001 9.16997C3.75345 12.3515 5.01884 15.4018 7.26853 17.6514C9.51822 19.9011 12.5685 21.1665 15.75 21.17C16.6663 21.173 17.5524 20.8423 18.2425 20.2395C18.9327 19.6368 19.3797 18.8043 19.5 17.896Z" fill="url(#paint0_linear_34_1017)"/>
<defs>
<linearGradient id="paint0_linear_34_1017" x1="2.25001" y1="3.91997" x2="21" y2="22.67" gradientUnits="userSpaceOnUse">
<stop stop-color="#68F7BB"/>
<stop offset="1" stop-color="#00A360"/>
</linearGradient>
</defs>
</svg>
