<svg width="1160" height="726" viewBox="0 0 1160 726" fill="none" xmlns="http://www.w3.org/2000/svg">
<rect y="0.0899658" width="1160" height="725" rx="24" fill="url(#paint0_linear_34_73)"/>
<g clip-path="url(#clip0_34_73)">
<rect x="10" y="10.09" width="1140" height="705" rx="20" fill="url(#paint1_linear_34_73)"/>
<g clip-path="url(#clip1_34_73)">
<rect width="1" height="1140" transform="translate(10 -207.41)" fill="white" fill-opacity="0.1"/>
<rect width="1" height="1140" transform="translate(73.27 -207.41)" fill="white" fill-opacity="0.1"/>
<rect width="1" height="1140" transform="translate(136.53 -207.41)" fill="white" fill-opacity="0.1"/>
<rect width="1" height="1140" transform="translate(199.8 -207.41)" fill="white" fill-opacity="0.1"/>
<rect width="1" height="1140" transform="translate(263.06 -207.41)" fill="white" fill-opacity="0.1"/>
<rect width="1" height="1140" transform="translate(326.33 -207.41)" fill="white" fill-opacity="0.1"/>
<rect width="1" height="1140" transform="translate(389.59 -207.41)" fill="white" fill-opacity="0.1"/>
<rect width="1" height="1140" transform="translate(452.86 -207.41)" fill="white" fill-opacity="0.1"/>
<rect width="1" height="1140" transform="translate(516.13 -207.41)" fill="white" fill-opacity="0.1"/>
<rect width="1" height="1140" transform="translate(579.39 -207.41)" fill="white" fill-opacity="0.1"/>
<rect width="1" height="1140" transform="translate(642.66 -207.41)" fill="white" fill-opacity="0.1"/>
<rect width="1" height="1140" transform="translate(705.92 -207.41)" fill="white" fill-opacity="0.1"/>
<rect width="1" height="1140" transform="translate(769.19 -207.41)" fill="white" fill-opacity="0.1"/>
<rect width="1" height="1140" transform="translate(832.45 -207.41)" fill="white" fill-opacity="0.1"/>
<rect width="1" height="1140" transform="translate(895.72 -207.41)" fill="white" fill-opacity="0.1"/>
<rect width="1" height="1140" transform="translate(958.98 -207.41)" fill="white" fill-opacity="0.1"/>
<rect width="1" height="1140" transform="translate(1022.25 -207.41)" fill="white" fill-opacity="0.1"/>
<rect width="1" height="1140" transform="translate(1085.52 -207.41)" fill="white" fill-opacity="0.1"/>
<rect width="1" height="1140" transform="translate(1148.78 -207.41)" fill="white" fill-opacity="0.1"/>
</g>
<g clip-path="url(#clip2_34_73)">
<rect width="1140" height="1" transform="translate(10 45.66)" fill="white" fill-opacity="0.1"/>
<rect width="1140" height="1" transform="translate(10 108.92)" fill="white" fill-opacity="0.1"/>
<rect width="1140" height="1" transform="translate(10 172.19)" fill="white" fill-opacity="0.1"/>
<rect width="1140" height="1" transform="translate(10 235.45)" fill="white" fill-opacity="0.1"/>
<rect width="1140" height="1" transform="translate(10 298.72)" fill="white" fill-opacity="0.1"/>
<rect width="1140" height="1" transform="translate(10 361.98)" fill="white" fill-opacity="0.1"/>
<rect width="1140" height="1" transform="translate(10 425.25)" fill="white" fill-opacity="0.1"/>
<rect width="1140" height="1" transform="translate(10 488.52)" fill="white" fill-opacity="0.1"/>
<rect width="1140" height="1" transform="translate(10 551.78)" fill="white" fill-opacity="0.1"/>
<rect width="1140" height="1" transform="translate(10 615.05)" fill="white" fill-opacity="0.1"/>
<rect width="1140" height="1" transform="translate(10 678.31)" fill="white" fill-opacity="0.1"/>
</g>
<rect width="1140" height="1140" transform="translate(10 -207.41)" fill="url(#paint2_radial_34_73)"/>
<g clip-path="url(#clip3_34_73)">
<g opacity="0.812039" filter="url(#filter0_f_34_73)">
<rect x="-316.41" y="334.39" width="800" height="400" rx="200" transform="rotate(30 -316.41 334.39)" fill="#68F7BB"/>
</g>
<g opacity="0.999824" filter="url(#filter1_f_34_73)">
<rect x="130" y="627.59" width="900" height="400" rx="200" fill="#68F7BB"/>
</g>
<g opacity="0.75" filter="url(#filter2_f_34_73)">
<rect x="783.59" y="734.39" width="800" height="400" rx="200" transform="rotate(-30 783.59 734.39)" fill="#68F7BB"/>
</g>
</g>
</g>
<defs>
<filter id="filter0_f_34_73" x="-616.41" y="234.39" width="1092.82" height="946.41" filterUnits="userSpaceOnUse" color-interpolation-filters="sRGB">
<feFlood flood-opacity="0" result="BackgroundImageFix"/>
<feBlend mode="normal" in="SourceGraphic" in2="BackgroundImageFix" result="shape"/>
<feGaussianBlur stdDeviation="50" result="effect1_foregroundBlur_34_73"/>
</filter>
<filter id="filter1_f_34_73" x="30" y="527.59" width="1100" height="600" filterUnits="userSpaceOnUse" color-interpolation-filters="sRGB">
<feFlood flood-opacity="0" result="BackgroundImageFix"/>
<feBlend mode="normal" in="SourceGraphic" in2="BackgroundImageFix" result="shape"/>
<feGaussianBlur stdDeviation="50" result="effect1_foregroundBlur_34_73"/>
</filter>
<filter id="filter2_f_34_73" x="683.59" y="234.39" width="1092.82" height="946.41" filterUnits="userSpaceOnUse" color-interpolation-filters="sRGB">
<feFlood flood-opacity="0" result="BackgroundImageFix"/>
<feBlend mode="normal" in="SourceGraphic" in2="BackgroundImageFix" result="shape"/>
<feGaussianBlur stdDeviation="50" result="effect1_foregroundBlur_34_73"/>
</filter>
<linearGradient id="paint0_linear_34_73" x1="1160" y1="362.59" x2="0" y2="362.59" gradientUnits="userSpaceOnUse">
<stop stop-color="#171717" stop-opacity="0.9"/>
<stop offset="0.5" stop-color="#2F2F2F" stop-opacity="0.9"/>
<stop offset="1" stop-color="#171717" stop-opacity="0.9"/>
</linearGradient>
<linearGradient id="paint1_linear_34_73" x1="580" y1="10.09" x2="580" y2="715.09" gradientUnits="userSpaceOnUse">
<stop/>
<stop offset="1" stop-color="white" stop-opacity="0.05"/>
</linearGradient>
<radialGradient id="paint2_radial_34_73" cx="0" cy="0" r="1" gradientUnits="userSpaceOnUse" gradientTransform="translate(570 570) scale(570)">
<stop stop-opacity="0.25"/>
<stop offset="1"/>
</radialGradient>
<clipPath id="clip0_34_73">
<rect x="10" y="10.09" width="1140" height="705" rx="20" fill="white"/>
</clipPath>
<clipPath id="clip1_34_73">
<rect width="1140" height="1140" fill="white" transform="translate(10 -207.41)"/>
</clipPath>
<clipPath id="clip2_34_73">
<rect width="1140" height="1140" fill="white" transform="translate(10 -207.41)"/>
</clipPath>
<clipPath id="clip3_34_73">
<rect width="1140" height="1057.5" fill="white" transform="translate(10 10.09)"/>
</clipPath>
</defs>
</svg>
