<svg width="108" height="33" viewBox="0 0 108 33" fill="none" xmlns="http://www.w3.org/2000/svg">
<g opacity="0.5" clip-path="url(#clip0_34_176)">
<g clip-path="url(#clip1_34_176)">
<path fill-rule="evenodd" clip-rule="evenodd" d="M11.476 7.61993L12.999 5.05093L17.316 7.47993L15.794 10.0469C15.526 10.4969 15.927 11.0449 16.451 10.9469L19.369 10.3979L20.313 15.1649L17.395 15.7119C12.675 16.5979 9.074 11.6729 11.476 7.61993ZM8.838 24.9739L7.315 27.5419L2.996 25.1149L4.519 22.5469C4.787 22.0969 4.386 21.5489 3.861 21.6469L0.944 22.1949L0 17.4299L2.918 16.8819C7.638 15.9959 11.24 20.9219 8.838 24.9739ZM8.97 7.61993L7.446 5.04993L3.129 7.47993L4.652 10.0469C4.918 10.4969 4.519 11.0449 3.994 10.9469L1.076 10.3979L0.133 15.1649L3.05 15.7119C7.77 16.5979 11.373 11.6729 8.97 7.61993ZM11.349 24.9739L12.87 27.5419L17.189 25.1149L15.666 22.5469C15.399 22.0969 15.799 21.5489 16.324 21.6469L19.241 22.1949L20.185 17.4299L17.267 16.8819C12.547 15.9959 8.945 20.9219 11.347 24.9739H11.349Z" fill="white"/>
<path d="M94.2051 22.005V17.226C94.2051 16.564 94.3611 15.969 94.6751 15.444C95.0055 14.9013 95.4829 14.4634 96.0521 14.181C96.6461 13.877 97.3541 13.724 98.1741 13.724C98.5571 13.721 98.9391 13.768 99.3091 13.866C99.6372 13.9436 99.9531 14.0658 100.248 14.229C100.54 14.376 100.788 14.555 100.994 14.765H101.026C101.247 14.5511 101.498 14.3706 101.771 14.229C102.072 14.067 102.394 13.945 102.728 13.866C103.104 13.7689 103.49 13.7212 103.878 13.724C104.699 13.724 105.406 13.876 106.001 14.181C106.57 14.4636 107.047 14.9015 107.377 15.444C107.705 15.98 107.874 16.5979 107.864 17.226V22.006H105.336V17.305C105.336 17.042 105.266 16.805 105.126 16.595C104.996 16.374 104.812 16.1896 104.591 16.059C104.356 15.9197 104.086 15.8484 103.813 15.853C103.521 15.853 103.257 15.923 103.019 16.059C102.798 16.1895 102.614 16.3739 102.484 16.595C102.353 16.8085 102.286 17.0547 102.29 17.305V22.005H99.7791V17.305C99.7791 17.042 99.7091 16.805 99.5681 16.595C99.4351 16.3707 99.2449 16.1857 99.0171 16.059C98.7818 15.9197 98.5125 15.8484 98.2391 15.853C97.9471 15.853 97.6831 15.923 97.4451 16.059C97.2245 16.1894 97.0407 16.3739 96.9111 16.595C96.7806 16.8086 96.713 17.0547 96.7161 17.305V22.005H94.2051ZM88.7121 22.195C87.8591 22.195 87.1181 22.037 86.4921 21.721C85.8771 21.395 85.4021 20.959 85.0671 20.412C84.7319 19.855 84.5578 19.216 84.5641 18.566V13.913H87.0761V18.503C87.0761 18.787 87.1461 19.05 87.2861 19.293C87.4261 19.523 87.6161 19.713 87.8531 19.86C88.1011 19.997 88.3831 20.065 88.6961 20.065C88.9981 20.065 89.2681 19.997 89.5061 19.86C89.7541 19.713 89.9491 19.523 90.0891 19.292C90.2287 19.0526 90.3015 18.7801 90.3001 18.503V13.913H92.8111V18.566C92.8111 19.24 92.6491 19.856 92.3251 20.412C92.0011 20.959 91.5311 21.396 90.9151 21.722C90.3101 22.037 89.5751 22.195 88.7121 22.195ZM76.4741 22.005V20.065H80.4771C80.5776 20.0665 80.6772 20.045 80.7681 20.002C80.8529 19.9507 80.9248 19.8806 80.9781 19.797C81.0176 19.7358 81.0436 19.6668 81.0543 19.5947C81.0651 19.5227 81.0604 19.4491 81.0405 19.379C81.0207 19.3089 80.9861 19.2438 80.9391 19.1881C80.8921 19.1324 80.8338 19.0874 80.7681 19.056C80.6804 19.0027 80.5796 18.975 80.4771 18.976H79.0181C78.5154 18.9831 78.0158 18.8976 77.5441 18.724C77.1264 18.5567 76.7662 18.2718 76.5071 17.904C76.2581 17.526 76.1341 17.037 76.1341 16.437C76.1341 15.974 76.2471 15.554 76.4741 15.175C76.718 14.7859 77.0574 14.4657 77.4599 14.2448C77.8625 14.024 78.3149 13.9097 78.7741 13.913H82.7771V15.869H79.1641C79.0211 15.8662 78.8822 15.9172 78.7751 16.012C78.7285 16.0567 78.6915 16.1104 78.6663 16.1699C78.6412 16.2294 78.6286 16.2934 78.6291 16.358C78.6291 16.506 78.6791 16.632 78.7751 16.737C78.8823 16.8315 79.0212 16.8822 79.1641 16.879H80.5901C81.1951 16.879 81.7131 16.969 82.1451 17.147C82.5881 17.315 82.9281 17.589 83.1661 17.967C83.4151 18.346 83.5391 18.835 83.5391 19.434C83.5391 19.907 83.4151 20.339 83.1661 20.727C82.9311 21.114 82.5961 21.435 82.1941 21.658C81.78 21.8933 81.3103 22.0132 80.8341 22.005H76.4741ZM71.0031 13.725C71.7051 13.725 72.3261 13.835 72.8661 14.055C73.394 14.2506 73.8706 14.5634 74.2601 14.97C74.6531 15.367 74.9571 15.84 75.1501 16.358C75.3561 16.884 75.4581 17.468 75.4581 18.109C75.4581 18.909 75.2861 19.619 74.9401 20.239C74.617 20.8367 74.1349 21.3333 73.5471 21.674C72.9531 22.021 72.2611 22.194 71.4731 22.194C71.1381 22.194 70.8191 22.153 70.5161 22.069C70.2301 21.9874 69.9573 21.8651 69.7061 21.706C69.4712 21.551 69.268 21.3528 69.1071 21.122H69.0581V25.429H66.5481V18.109C66.5481 17.215 66.7311 16.442 67.0981 15.79C67.458 15.1445 67.9984 14.618 68.6531 14.275C69.3231 13.908 70.1061 13.725 71.0031 13.725ZM71.0031 15.838C70.6425 15.8301 70.2877 15.9289 69.9831 16.122C69.6972 16.3055 69.4712 16.5686 69.3331 16.879C69.1831 17.194 69.1071 17.552 69.1071 17.951C69.1071 18.351 69.1831 18.709 69.3341 19.024C69.4851 19.34 69.7011 19.592 69.9821 19.782C70.2741 19.96 70.6141 20.05 71.0021 20.05C71.3921 20.05 71.7261 19.96 72.0071 19.782C72.2901 19.591 72.5141 19.329 72.6561 19.024C72.8171 18.709 72.8981 18.351 72.8981 17.951C72.8981 17.552 72.8181 17.195 72.6561 16.879C72.5184 16.5686 72.2927 16.3055 72.0071 16.122C71.7271 15.932 71.3911 15.838 71.0031 15.838ZM62.7311 22.005V13.913H65.2591V22.005H62.7311ZM63.9941 12.998C63.5941 12.998 63.2491 12.857 62.9581 12.573C62.8188 12.4443 62.708 12.2881 62.6326 12.1142C62.5571 11.9403 62.5188 11.7525 62.5201 11.563C62.5201 11.173 62.6661 10.838 62.9581 10.553C63.0912 10.4123 63.2519 10.3005 63.4301 10.2246C63.6084 10.1487 63.8004 10.1104 63.9941 10.112C64.3941 10.112 64.7401 10.259 65.0321 10.554C65.3231 10.838 65.4691 11.174 65.4691 11.563C65.4691 11.952 65.3231 12.288 65.0321 12.573C64.8964 12.7098 64.7346 12.8179 64.5562 12.8909C64.3779 12.964 64.1867 13.0004 63.9941 12.998ZM57.2371 22.195C56.3841 22.195 55.6171 22.011 54.9371 21.643C54.2728 21.2898 53.7139 20.7671 53.3171 20.128C52.9271 19.487 52.7331 18.767 52.7331 17.968C52.7331 17.158 52.9281 16.438 53.3161 15.806C53.713 15.1672 54.272 14.6449 54.9361 14.292C55.6171 13.913 56.3841 13.724 57.2371 13.724C58.0911 13.724 58.8521 13.914 59.5221 14.292C60.1881 14.646 60.7421 15.17 61.1261 15.806C61.5261 16.437 61.7261 17.157 61.7261 17.967C61.7261 18.767 61.5261 19.487 61.1261 20.128C60.7383 20.7688 60.184 21.2924 59.5221 21.643C58.8421 22.011 58.0801 22.195 57.2371 22.195ZM57.2371 20.065C57.6371 20.065 57.9831 19.97 58.2741 19.781C58.5661 19.592 58.8011 19.331 58.9541 19.024C59.1207 18.6912 59.2044 18.3231 59.1981 17.951C59.1981 17.562 59.1171 17.211 58.9551 16.894C58.7997 16.5857 58.565 16.3244 58.2751 16.137C57.9831 15.948 57.6371 15.853 57.2371 15.853C56.8371 15.853 56.4871 15.948 56.1841 16.138C55.8921 16.327 55.6571 16.588 55.5041 16.895C55.3392 17.2226 55.2558 17.5852 55.2611 17.952C55.2611 18.352 55.3411 18.709 55.5031 19.024C55.6571 19.331 55.8931 19.592 56.1841 19.782C56.4861 19.97 56.8381 20.065 57.2371 20.065ZM44.5711 25.208V23.109H48.7181C48.7928 23.1114 48.8673 23.0987 48.937 23.0717C49.0068 23.0447 49.0704 23.004 49.1241 22.952C49.176 22.9071 49.2173 22.8512 49.2452 22.7885C49.273 22.7257 49.2866 22.6576 49.2851 22.589V20.806H49.2371C49.0321 21.039 48.7971 21.246 48.5401 21.422C48.2941 21.5943 48.02 21.7225 47.7301 21.801C47.4091 21.888 47.0761 21.931 46.7421 21.926C46.0071 21.926 45.3491 21.758 44.7651 21.422C44.1913 21.0735 43.7213 20.5776 43.4041 19.986C43.0801 19.376 42.9181 18.682 42.9181 17.904C42.9181 17.137 43.0861 16.437 43.4211 15.806C43.7713 15.1702 44.2931 14.6456 44.9271 14.292C45.5861 13.913 46.3911 13.724 47.3421 13.724C48.2491 13.724 49.0321 13.908 49.6911 14.276C50.3531 14.626 50.8941 15.158 51.2461 15.806C51.6141 16.458 51.7971 17.226 51.7971 18.109V22.841C51.7971 23.567 51.5771 24.141 51.1331 24.561C50.7011 24.992 50.1021 25.207 49.3351 25.207H44.5701L44.5711 25.208ZM47.3581 19.876C47.7461 19.876 48.0811 19.792 48.3631 19.623C48.6401 19.448 48.8631 19.203 49.0101 18.913C49.1641 18.61 49.2411 18.274 49.2371 17.936C49.2371 17.557 49.1621 17.21 49.0111 16.895C48.8699 16.5908 48.6447 16.3334 48.3621 16.153C48.0821 15.963 47.7461 15.869 47.3571 15.869C46.9791 15.869 46.6451 15.959 46.3531 16.138C46.0731 16.316 45.8561 16.558 45.7051 16.863C45.5511 17.1825 45.4733 17.5334 45.4781 17.888C45.4781 18.257 45.5531 18.593 45.7051 18.898C45.8561 19.192 46.0721 19.428 46.3531 19.608C46.6562 19.7901 47.0045 19.8829 47.3581 19.876ZM37.8131 22.195C36.9601 22.195 36.1931 22.011 35.5131 21.643C34.8488 21.2899 34.2898 20.7672 33.8931 20.128C33.5031 19.487 33.3091 18.767 33.3091 17.968C33.3091 17.158 33.5041 16.438 33.8921 15.806C34.289 15.1672 34.8479 14.6448 35.5121 14.292C36.1931 13.913 36.9601 13.724 37.8131 13.724C38.6671 13.724 39.4281 13.914 40.0981 14.292C40.7598 14.6423 41.3142 15.1656 41.7021 15.806C42.1021 16.437 42.3021 17.157 42.3021 17.967C42.3021 18.767 42.1021 19.487 41.7021 20.128C41.3143 20.7688 40.7599 21.2924 40.0981 21.643C39.4181 22.011 38.6561 22.195 37.8131 22.195ZM37.8131 20.065C38.2131 20.065 38.5581 19.97 38.8501 19.781C39.1421 19.592 39.3771 19.331 39.5301 19.024C39.6967 18.6912 39.7801 18.323 39.7731 17.951C39.7731 17.562 39.6931 17.211 39.5311 16.894C39.3756 16.5858 39.1409 16.3245 38.8511 16.137C38.5591 15.948 38.2131 15.853 37.8131 15.853C37.4131 15.853 37.0631 15.948 36.7601 16.138C36.4691 16.327 36.2341 16.588 36.0801 16.895C35.9152 17.2226 35.8319 17.5852 35.8371 17.952C35.8371 18.352 35.9171 18.709 36.0791 19.024C36.2341 19.331 36.4691 19.592 36.7601 19.782C37.0631 19.97 37.4141 20.065 37.8131 20.065ZM29.7701 22.005C29.0681 22.005 28.4531 21.853 27.9241 21.548C27.4091 21.258 26.9841 20.838 26.6921 20.334C26.3994 19.8258 26.2482 19.2484 26.2541 18.662V10.964H28.9761V18.85C28.9761 19.103 29.0691 19.324 29.2521 19.513C29.4361 19.703 29.6621 19.797 29.9321 19.797H32.9301V22.005H29.7701Z" fill="white"/>
</g>
</g>
<defs>
<clipPath id="clip0_34_176">
<rect width="108" height="32" fill="white" transform="translate(0 0.47998)"/>
</clipPath>
<clipPath id="clip1_34_176">
<rect width="108" height="32" fill="white" transform="translate(0 0.47998)"/>
</clipPath>
</defs>
</svg>
