<svg width="99" height="33" viewBox="0 0 99 33" fill="none" xmlns="http://www.w3.org/2000/svg">
<g opacity="0.5" clip-path="url(#clip0_34_207)">
<g clip-path="url(#clip1_34_207)">
<path d="M2.4468 26.49H23.7858V5.67297H2.4458V26.488L2.4468 26.49ZM19.6788 14.079H15.1688V9.67997H19.6788V14.08V14.079ZM6.5528 9.67997H11.0648V18.084H19.6788V22.483H6.5528V9.67997ZM37.6818 5.67397C35.5718 5.67397 33.5078 6.28397 31.7538 7.42797C30.009 8.55969 28.6408 10.1855 27.8238 12.098C27.0168 13.9948 26.8051 16.0921 27.2168 18.112C27.6339 20.1409 28.6513 21.9975 30.1368 23.441C31.6412 24.9027 33.5401 25.8926 35.5998 26.289C37.6689 26.6907 39.81 26.4851 41.7648 25.697C43.7032 24.9182 45.3687 23.5849 46.5528 21.864C47.7222 20.162 48.3491 18.146 48.3508 16.081C48.3461 14.7083 48.0668 13.3504 47.5295 12.0873C46.9921 10.8242 46.2075 9.68132 45.2218 8.72597C43.2011 6.76667 40.4964 5.67189 37.6818 5.67397ZM37.6818 22.483C36.3875 22.4838 35.1208 22.1086 34.0358 21.403C32.9627 20.707 32.1213 19.7071 31.6188 18.531C31.1224 17.3647 30.992 16.0751 31.2448 14.833C31.5013 13.585 32.127 12.4429 33.0408 11.555C33.966 10.6558 35.1339 10.0468 36.4008 9.80297C37.6734 9.55577 38.9904 9.68219 40.1928 10.167C41.3851 10.6461 42.4095 11.4663 43.1378 12.525C43.857 13.5715 44.2425 14.8112 44.2438 16.081C44.2408 16.9253 44.0689 17.7605 43.7383 18.5374C43.4077 19.3144 42.9251 20.0173 42.3188 20.605C41.0761 21.8101 39.4128 22.4837 37.6818 22.483ZM86.5318 5.67297C84.4218 5.67297 82.3588 6.28297 80.6038 7.42697C78.8588 8.55895 77.4907 10.1851 76.6738 12.098C75.8666 13.9944 75.6545 16.0913 76.0658 18.111C76.4828 20.1402 77.5001 21.9972 78.9858 23.441C80.4904 24.9029 82.3897 25.8929 84.4498 26.289C86.5188 26.691 88.6638 26.485 90.6138 25.697C92.5521 24.9182 94.2176 23.5849 95.4018 21.864C96.5718 20.1623 97.199 18.1461 97.2008 16.081C97.1962 14.7084 96.9171 13.3506 96.3799 12.0874C95.8427 10.8243 95.0583 9.6814 94.0728 8.72597C92.0518 6.76643 89.3468 5.67063 86.5318 5.67297ZM86.5318 22.483C85.2376 22.484 83.971 22.1092 82.8858 21.404C81.8128 20.7079 80.9714 19.7081 80.4688 18.532C79.9722 17.3653 79.8418 16.0754 80.0948 14.833C80.3513 13.585 80.9771 12.4429 81.8908 11.555C82.816 10.6559 83.9839 10.0469 85.2508 9.80297C86.5228 9.55605 87.8391 9.68247 89.0408 10.167C90.2338 10.6458 91.259 11.466 91.9878 12.525C92.7064 13.5717 93.0916 14.8113 93.0928 16.081C93.0899 16.9253 92.9181 17.7606 92.5875 18.5375C92.2569 19.3144 91.7742 20.0174 91.1678 20.605C89.9255 21.81 88.2625 22.4836 86.5318 22.483ZM62.1058 5.67297C59.9958 5.67297 57.9328 6.28397 56.1788 7.42797C54.4339 8.55964 53.0658 10.1854 52.2488 12.098C51.4417 13.9948 51.23 16.0921 51.6418 18.112C52.059 20.1408 53.0763 21.9975 54.5618 23.441C56.0662 24.9027 57.9651 25.8926 60.0248 26.289C62.0936 26.6905 64.2343 26.4849 66.1888 25.697C68.1275 24.9183 69.7934 23.585 70.9778 21.864C72.1472 20.162 72.774 18.1459 72.7758 16.081C72.7711 14.7083 72.4918 13.3504 71.9545 12.0873C71.4171 10.8242 70.6325 9.68132 69.6468 8.72597C67.6261 6.76667 64.9214 5.67189 62.1068 5.67397L62.1058 5.67297ZM62.1058 22.483C60.8996 22.4845 59.7155 22.1597 58.6788 21.543C57.6529 20.9334 56.8157 20.0519 56.2598 18.996C55.7095 17.9487 55.4668 16.7671 55.5597 15.5876C55.6526 14.4082 56.0773 13.2792 56.7848 12.331C57.4997 11.3701 58.4648 10.6239 59.5748 10.174C60.6938 9.71931 61.9146 9.5749 63.1088 9.75597C64.3038 9.93597 65.4238 10.436 66.3468 11.199C67.2647 11.9554 67.9535 12.9527 68.3358 14.079H62.1058V18.084H68.3358C67.8967 19.3701 67.061 20.4839 65.9488 21.265C64.8237 22.0568 63.4816 22.4822 62.1058 22.483Z" fill="white"/>
</g>
</g>
<defs>
<clipPath id="clip0_34_207">
<rect width="99" height="32" fill="white" transform="translate(0 0.47998)"/>
</clipPath>
<clipPath id="clip1_34_207">
<rect width="99" height="32" fill="white" transform="translate(0 0.47998)"/>
</clipPath>
</defs>
</svg>
