<svg width="105" height="33" viewBox="0 0 105 33" fill="none" xmlns="http://www.w3.org/2000/svg">
<g clip-path="url(#clip0_34_182)">
<path fill-rule="evenodd" clip-rule="evenodd" d="M8.949 21.2329C8.158 21.2329 7.399 20.9289 6.839 20.3869C6.56388 20.1224 6.34481 19.8051 6.19483 19.4542C6.04485 19.1032 5.96703 18.7256 5.966 18.3439V5.04993H0V18.3429C0 23.1299 4.007 27.0109 8.949 27.0109H15.511V21.2319H8.95L8.949 21.2329ZM26.847 10.8309C26.143 10.8307 25.4455 10.9651 24.792 11.2269C24.1437 11.4861 23.5521 11.8689 23.05 12.3539C22.5536 12.8336 22.1579 13.4075 21.886 14.0419C21.617 14.6709 21.4783 15.3479 21.4783 16.0319C21.4783 16.716 21.617 17.393 21.886 18.0219C22.156 18.6529 22.551 19.2269 23.05 19.7099C23.548 20.1929 24.14 20.5759 24.792 20.8369C25.4455 21.0988 26.143 21.2332 26.847 21.2329C28.271 21.2329 29.637 20.6849 30.643 19.7099C31.1386 19.2338 31.5333 18.6628 31.8036 18.0309C32.0738 17.399 32.2141 16.7192 32.216 16.0319C32.2141 15.3447 32.0738 14.6648 31.8036 14.0329C31.5333 13.4011 31.1386 12.83 30.643 12.3539C29.6228 11.3735 28.2619 10.8275 26.847 10.8309ZM15.511 16.0309C15.511 9.96793 20.587 5.05093 26.847 5.05093C33.107 5.05093 38.182 9.96793 38.182 16.0309C38.182 22.0959 33.107 27.0119 26.847 27.0119C20.587 27.0119 15.511 22.0959 15.511 16.0319V16.0309ZM91.278 10.8309C89.854 10.8309 88.488 11.3789 87.482 12.3539C86.9864 12.83 86.5917 13.4011 86.3214 14.0329C86.0512 14.6648 85.9109 15.3447 85.909 16.0319C85.9109 16.7192 86.0512 17.399 86.3214 18.0309C86.5917 18.6628 86.9864 19.2338 87.482 19.7099C88.5022 20.6903 89.8631 21.2364 91.278 21.2329C92.702 21.2329 94.068 20.6849 95.075 19.7099C95.5706 19.2338 95.9653 18.6628 96.2356 18.0309C96.5058 17.399 96.6461 16.7192 96.648 16.0319C96.6461 15.3447 96.5058 14.6648 96.2356 14.0329C95.9653 13.4011 95.5706 12.83 95.075 12.3539C94.0547 11.3732 92.6933 10.8271 91.278 10.8309ZM79.943 16.0309C79.943 9.96793 85.018 5.05093 91.278 5.05093C97.538 5.05093 102.614 9.96793 102.614 16.0309C102.614 22.0959 97.538 27.0119 91.278 27.0119C85.018 27.0119 79.943 22.0959 79.943 16.0319V16.0309ZM50.71 5.05193C44.45 5.05193 39.375 9.96893 39.375 16.0319C39.375 22.0969 44.45 27.0129 50.71 27.0129H67.415C68.589 27.0129 69.722 26.8399 70.788 26.5189L73.978 28.1689L77.418 21.9249C78.2901 20.3437 78.7483 18.5677 78.75 16.7619V16.0319C78.75 9.96893 73.675 5.05193 67.415 5.05193H50.71ZM72.784 16.0319C72.7819 15.3448 72.6416 14.6652 72.3714 14.0335C72.1011 13.4018 71.7065 12.8309 71.211 12.3549C70.1908 11.3745 68.8299 10.8285 67.415 10.8319H50.71C50.0064 10.8318 49.3092 10.9662 48.656 11.2279C48.0077 11.4871 47.4161 11.8698 46.914 12.3549C46.4177 12.8347 46.022 13.4085 45.75 14.0429C45.481 14.6719 45.3423 15.3489 45.3423 16.0329C45.3423 16.717 45.481 17.394 45.75 18.0229C46.02 18.6539 46.415 19.2279 46.913 19.7109C47.4155 20.196 48.0075 20.5787 48.656 20.8379C49.3092 21.0996 50.0064 21.234 50.71 21.2339H67.415C68.8231 21.2374 70.1781 20.6968 71.197 19.7249C71.6919 19.253 72.0873 18.6867 72.3599 18.0595C72.6325 17.4322 72.7767 16.7568 72.784 16.0729V16.0319Z" fill="white"/>
<path d="M105 6.49603C105 6.87903 104.843 7.24603 104.563 7.51803C104.283 7.78803 103.904 7.94103 103.508 7.94103C103.113 7.94103 102.734 7.78903 102.454 7.51803C102.316 7.38578 102.207 7.22712 102.132 7.05153C102.056 6.87593 102.018 6.687 102.017 6.49603C102.017 6.11303 102.174 5.74603 102.454 5.47503C102.734 5.20403 103.113 5.05103 103.508 5.05103C103.904 5.05103 104.283 5.20403 104.563 5.47503C104.843 5.74503 105 6.11303 105 6.49603Z" fill="white"/>
</g>
<defs>
<clipPath id="clip0_34_182">
<rect width="105" height="32" fill="white" transform="translate(0 0.47998)"/>
</clipPath>
</defs>
</svg>
