<svg width="116" height="33" viewBox="0 0 116 33" fill="none" xmlns="http://www.w3.org/2000/svg">
<g opacity="0.5" clip-path="url(#clip0_34_191)">
<g clip-path="url(#clip1_34_191)">
<path d="M10.5462 26.87C16.3702 26.87 21.0912 22.241 21.0912 16.532V9.29597C21.0905 8.88712 21.0081 8.48254 20.8489 8.10595C20.6897 7.72936 20.4569 7.38837 20.1642 7.10297C19.5661 6.51911 18.763 6.1928 17.9272 6.19397H11.0732V10.729C11.0732 11.764 11.1372 12.836 11.6912 13.717C12.0899 14.3504 12.6202 14.8906 13.2462 15.301C13.8763 15.7145 14.5869 15.9899 15.3312 16.109L15.5332 16.141C15.6178 16.1658 15.6921 16.2174 15.7449 16.2879C15.7978 16.3585 15.8263 16.4443 15.8263 16.5325C15.8263 16.6206 15.7978 16.7064 15.7449 16.777C15.6921 16.8476 15.6178 16.8992 15.5332 16.924L15.3312 16.955C14.2452 17.1277 13.2395 17.6333 12.4532 18.402C11.6747 19.1621 11.1578 20.15 10.9772 21.223L10.9452 21.421C10.9144 21.5018 10.8597 21.5714 10.7885 21.6205C10.7172 21.6696 10.6327 21.6959 10.5462 21.6959C10.4597 21.6959 10.3752 21.6696 10.3039 21.6205C10.2327 21.5714 10.178 21.5018 10.1472 21.421L10.1142 21.223C9.99132 20.4902 9.71012 19.793 9.29018 19.18C8.86693 18.5621 8.31581 18.0423 7.67418 17.656C6.77618 17.113 5.68218 17.05 4.62718 17.05H0.0131836C0.289184 22.519 4.89918 26.87 10.5462 26.87Z" fill="white"/>
<path d="M0 16.0149H4.626C5.682 16.0149 6.776 15.9519 7.674 15.4089C8.37351 14.9874 8.96461 14.4079 9.4 13.7169C9.954 12.8369 10.018 11.7639 10.018 10.7289V6.19394H3.164C2.324 6.19394 1.52 6.52094 0.927 7.10294C0.634242 7.38834 0.401439 7.72933 0.242252 8.10592C0.0830662 8.4825 0.000704244 8.88709 0 9.29594L0 16.0149ZM24.494 7.22794C24.494 7.50194 24.384 7.76494 24.186 7.95894C23.9869 8.15438 23.719 8.26387 23.44 8.26387C23.161 8.26387 22.8931 8.15438 22.694 7.95894C22.5964 7.86383 22.5188 7.75012 22.4659 7.62453C22.413 7.49894 22.3858 7.36402 22.3859 7.22773C22.386 7.09144 22.4134 6.95656 22.4665 6.83104C22.5196 6.70553 22.5973 6.59192 22.695 6.49694C22.894 6.30211 23.1615 6.19299 23.44 6.19299C23.7185 6.19299 23.986 6.30211 24.185 6.49694C24.383 6.69094 24.495 6.95394 24.495 7.22794H24.494ZM111.629 12.4509C114.577 12.4509 116 14.4689 116 16.8069V21.1969H112.915V17.3269C112.915 16.2679 112.521 15.3939 111.39 15.3939C110.259 15.3939 109.882 16.2679 109.882 17.3279V21.1979H106.796V17.3279C106.796 16.2679 106.419 15.3939 105.288 15.3939C104.157 15.3939 103.763 16.2679 103.763 17.3279V21.1979H100.678V16.8059C100.678 14.4679 102.1 12.4499 105.048 12.4499C106.659 12.4499 107.825 13.0719 108.356 14.0979C108.921 13.0719 110.156 12.4509 111.629 12.4509ZM95.134 18.5059C96.128 18.5059 96.557 17.6149 96.557 16.5549V12.7869H99.641V16.9249C99.641 19.3979 98.168 21.4499 95.134 21.4499C92.1 21.4499 90.627 19.3979 90.627 16.9249V12.7869H93.712V16.5549C93.712 17.6149 94.14 18.5059 95.134 18.5059ZM86.09 21.4659C84.154 21.4659 82.903 20.8109 82.165 19.5319L84.394 18.3039C84.702 18.8419 85.164 19.1119 85.936 19.1119C86.57 19.1119 86.861 18.8929 86.861 18.6239C86.861 17.5979 82.337 18.6409 82.337 15.3779C82.337 13.7959 83.707 12.5179 86.039 12.5179C88.079 12.5179 89.192 13.4929 89.689 14.4349L87.462 15.6799C87.274 15.1759 86.691 14.8729 86.108 14.8729C85.663 14.8729 85.423 15.0579 85.423 15.3099C85.423 16.3529 89.947 15.3939 89.947 18.5559C89.947 20.3229 88.182 21.4659 86.091 21.4659H86.09ZM75.312 25.0659H72.227V16.9759C72.227 14.4009 74.197 12.5339 76.94 12.5339C79.614 12.5339 81.653 14.5359 81.653 16.9749C81.653 19.6669 79.836 21.4499 77.112 21.4499C76.4826 21.442 75.8646 21.2803 75.312 20.9789V25.0659ZM76.94 18.6069C77.917 18.6069 78.568 17.8669 78.568 16.9919C78.568 16.1009 77.918 15.3769 76.94 15.3769C75.963 15.3769 75.312 16.1009 75.312 16.9919C75.312 17.8669 75.963 18.6069 76.94 18.6069ZM69.137 11.8959C68.125 11.8959 67.286 11.0709 67.286 10.0789C67.286 9.08594 68.126 8.26194 69.136 8.26194C70.148 8.26194 70.988 9.08594 70.988 10.0789C70.988 11.0709 70.148 11.8949 69.136 11.8949L69.137 11.8959ZM67.594 12.7859H70.679V21.1979H67.594V12.7869V12.7859ZM61.675 21.4499C59.001 21.4499 56.962 19.4319 56.962 16.9749C56.962 14.5359 59.002 12.5179 61.675 12.5179C64.349 12.5179 66.388 14.5359 66.388 16.9749C66.388 19.4319 64.348 21.4499 61.675 21.4499ZM61.675 18.6069C62.652 18.6069 63.303 17.8669 63.303 16.9919C63.303 16.1009 62.653 15.3609 61.675 15.3609C60.698 15.3609 60.047 16.1009 60.047 16.9909C60.047 17.8669 60.698 18.6069 61.675 18.6069ZM51.137 25.3199C49.012 25.3199 47.469 24.3949 46.681 22.7459L49.234 21.3999C49.508 21.9729 50.022 22.5609 51.084 22.5609C52.199 22.5609 52.936 21.8709 53.022 20.6609C52.611 21.0139 51.959 21.2829 50.982 21.2829C48.6 21.2829 46.68 19.4829 46.68 16.9589C46.68 14.5209 48.72 12.5349 51.394 12.5349C54.136 12.5349 56.107 14.4029 56.107 16.9759V20.3069C56.107 23.3349 53.964 25.3199 51.137 25.3199ZM51.342 18.4399C52.267 18.4399 52.97 17.8169 52.97 16.8919C52.97 15.9839 52.268 15.3779 51.342 15.3779C50.434 15.3779 49.714 15.9839 49.714 16.8929C49.714 17.8179 50.434 18.4399 51.342 18.4399ZM41.447 21.4509C38.773 21.4509 36.733 19.4329 36.733 16.9759C36.733 14.5369 38.773 12.5189 41.447 12.5189C44.121 12.5189 46.161 14.5369 46.161 16.9759C46.161 19.4329 44.121 21.4509 41.447 21.4509ZM41.447 18.6079C42.424 18.6079 43.075 17.8679 43.075 16.9929C43.075 16.1019 42.425 15.3619 41.447 15.3619C40.47 15.3619 39.819 16.1019 39.819 16.9919C39.819 17.8679 40.47 18.6079 41.447 18.6079ZM31.116 9.84294V18.3379H36.224V21.1979H30.687C28.734 21.1979 27.945 20.1879 27.945 18.5899V9.84294H31.116Z" fill="white"/>
</g>
</g>
<defs>
<clipPath id="clip0_34_191">
<rect width="116" height="32" fill="white" transform="translate(0 0.47998)"/>
</clipPath>
<clipPath id="clip1_34_191">
<rect width="116" height="32" fill="white" transform="translate(0 0.47998)"/>
</clipPath>
</defs>
</svg>
