<svg width="101" height="33" viewBox="0 0 101 33" fill="none" xmlns="http://www.w3.org/2000/svg">
<g opacity="0.5" clip-path="url(#clip0_34_201)">
<g clip-path="url(#clip1_34_201)">
<path fill-rule="evenodd" clip-rule="evenodd" d="M5.985 5.95998V28.149H0V5.95898L5.985 5.95998ZM8.978 5.95998H21.696C25.828 5.95998 29.178 9.26998 29.178 13.356C29.178 17.441 25.828 20.752 21.696 20.752H14.963V28.149H8.978V5.95998ZM14.963 14.835H21.696C22.523 14.835 23.193 14.173 23.193 13.355C23.193 12.539 22.523 11.876 21.696 11.876H14.963V14.835ZM51.622 5.95998V17.424C51.622 20.079 53.799 22.231 56.485 22.231C59.171 22.231 61.348 20.079 61.348 17.424V5.95898H67.334V17.424C67.334 23.347 62.477 28.149 56.485 28.149C50.494 28.149 45.637 23.347 45.637 17.424V5.95898L51.622 5.95998Z" fill="white"/>
<path fill-rule="evenodd" clip-rule="evenodd" d="M31.422 16.314C31.422 10.595 36.112 5.95898 41.896 5.95898H43.393V11.876H41.896C39.417 11.876 37.407 13.863 37.407 16.314V17.054C37.407 23.181 32.383 28.149 26.185 28.149H25.437V22.23H26.185C29.078 22.23 31.422 19.912 31.422 17.053V16.314Z" fill="white"/>
<path d="M101 6.69898C101 7.92398 99.9949 8.91798 98.7549 8.91798C97.5149 8.91798 96.5109 7.92398 96.5109 6.69798C96.5109 5.47398 97.5159 4.47998 98.7549 4.47998C99.9949 4.47998 101 5.47298 101 6.69898ZM73.7599 28.149L76.6159 16.325L78.7389 23.438C80.0049 27.681 86.0839 27.681 87.3499 23.438L89.4729 16.325L92.3289 28.149H98.4819L93.9919 9.55698C92.9229 5.13498 86.6219 4.97198 85.3199 9.33198L83.0449 16.955L80.7689 9.33198C79.4679 4.97198 73.1649 5.13498 72.0969 9.55698L67.6069 28.149H73.7599Z" fill="white"/>
</g>
</g>
<defs>
<clipPath id="clip0_34_201">
<rect width="101" height="32" fill="white" transform="translate(0 0.47998)"/>
</clipPath>
<clipPath id="clip1_34_201">
<rect width="101" height="32" fill="white" transform="translate(0 0.47998)"/>
</clipPath>
</defs>
</svg>
