<svg width="74" height="33" viewBox="0 0 74 33" fill="none" xmlns="http://www.w3.org/2000/svg">
<g opacity="0.5" clip-path="url(#clip0_34_211)">
<g clip-path="url(#clip1_34_211)">
<path d="M18.1629 14.282C20.0499 14.282 20.4739 15.08 20.4739 16.075C20.4739 17.13 19.9609 17.886 18.1709 17.886C16.3919 17.886 15.8779 17.174 15.8779 16.076C15.8779 14.994 16.4379 14.282 18.1629 14.282ZM37.8799 14.282C39.7659 14.282 40.1899 15.08 40.1899 16.075C40.1899 17.13 39.6769 17.886 37.8869 17.886C36.1099 17.886 35.5949 17.174 35.5949 16.076C35.5949 14.994 36.1549 14.282 37.8799 14.282Z" fill="white"/>
<path fill-rule="evenodd" clip-rule="evenodd" d="M1.45898 26.448V5.69299H96.8V26.448H1.45998H1.45898ZM46.899 25.278H95.599V6.86299H46.899V25.278ZM18.172 19.653C21.522 19.653 22.93 18.246 22.93 16.049C22.93 13.816 21.343 12.489 18.172 12.489C15.049 12.489 13.405 13.93 13.405 16.049C13.405 18.44 15.13 19.653 18.172 19.653ZM6.52698 12.647V19.547H13.287V17.71H8.97298V12.647H6.52698ZM30.495 19.547L30.432 18.879C29.6083 19.449 28.6153 19.7219 27.616 19.653C26.108 19.653 24.853 19.213 24.149 18.326C23.686 17.6826 23.4509 16.9031 23.481 16.111C23.4554 15.3352 23.6984 14.5743 24.169 13.957C24.882 13.096 26.173 12.524 28.096 12.524C30.308 12.524 31.608 13.184 32.166 14.291C32.286 14.551 32.357 14.831 32.375 15.117H30.035C29.9752 14.9424 29.8653 14.7894 29.719 14.677C29.25 14.3755 28.6947 14.2367 28.139 14.282C27.8121 14.2436 27.4808 14.2732 27.166 14.369C26.8532 14.4636 26.5636 14.6227 26.316 14.836C26.036 15.209 25.904 15.668 25.946 16.128C25.913 16.568 26.034 17.004 26.289 17.368C26.541 17.5934 26.8374 17.7638 27.159 17.8681C27.4807 17.9725 27.8206 18.0085 28.157 17.974C28.8258 18.0279 29.4903 17.8268 30.017 17.411C30.129 17.275 30.207 17.114 30.242 16.943H27.724V15.46H32.436V19.548H30.496L30.495 19.547ZM37.889 19.653C41.237 19.653 42.646 18.246 42.646 16.049C42.646 13.816 41.058 12.489 37.889 12.489C34.766 12.489 33.122 13.93 33.122 16.049C33.122 18.44 34.846 19.653 37.889 19.653Z" fill="white"/>
<path d="M51.0181 19.521V12.621H52.7621V19.521H51.0181ZM61.7151 16.638C61.2731 17.201 60.5131 17.458 59.4411 17.464L56.2181 17.455V19.521H54.5101V12.621H59.4401C59.8336 12.5805 60.2313 12.6211 60.6086 12.7405C60.9858 12.8599 61.3345 13.0554 61.6331 13.315C62.0231 13.809 62.2131 14.425 62.1661 15.047C62.2052 15.6138 62.0464 16.1765 61.7151 16.638ZM60.3161 14.388C60.1361 14.125 59.7471 13.978 59.0891 13.978H56.2091V16.078H59.0701C59.7741 16.078 60.1451 15.938 60.3161 15.666C60.4181 15.473 60.4621 15.256 60.4431 15.042C60.458 14.8167 60.4142 14.5914 60.3161 14.388ZM67.1961 19.627C63.9811 19.627 62.9981 18.456 62.9981 17.297H64.8211C64.8211 17.869 65.6251 18.3 67.2771 18.3C68.9191 18.3 69.3531 18.018 69.3531 17.56C69.3531 17.05 69.0281 16.893 67.5031 16.726C67.0264 16.6789 66.5507 16.6232 66.0761 16.559C63.9121 16.321 63.0791 15.697 63.0791 14.581C63.0791 13.403 64.2981 12.515 66.9431 12.515C69.8131 12.515 70.9151 13.615 70.9151 14.757H69.1101C69.1101 14.177 68.4331 13.843 66.8351 13.843C65.1921 13.843 64.8401 14.062 64.8401 14.493C64.8401 14.941 65.2011 15.082 66.9451 15.283C67.3421 15.337 68.2261 15.433 68.4701 15.459C70.3121 15.644 71.1421 16.294 71.1421 17.446C71.1391 18.818 69.8761 19.626 67.1951 19.626L67.1961 19.627ZM76.2781 19.618C73.9221 19.618 72.3881 18.712 72.3881 16.808V12.62H74.1111V16.83C74.1111 17.7 74.8421 18.28 76.3501 18.28C77.7131 18.28 78.5261 17.736 78.5261 16.83V12.62H80.2321V16.963C80.2321 18.694 78.8051 19.617 76.2781 19.617V19.618ZM89.5751 19.521V14.915L87.3631 19.521H85.6851L83.5351 14.915V19.521H81.9121V12.621H84.1121L86.5491 17.878L89.0401 12.621H91.2051V19.521H89.5751Z" fill="white"/>
</g>
</g>
<defs>
<clipPath id="clip0_34_211">
<rect width="98" height="32" fill="white" transform="translate(0 0.47998)"/>
</clipPath>
<clipPath id="clip1_34_211">
<rect width="98" height="32" fill="white" transform="translate(0 0.47998)"/>
</clipPath>
</defs>
</svg>
