<svg width="81" height="33" viewBox="0 0 81 33" fill="none" xmlns="http://www.w3.org/2000/svg">
<g opacity="0.5" clip-path="url(#clip0_34_196)">
<g clip-path="url(#clip1_34_196)">
<path d="M16.5078 16.818C16.5078 15.724 17.1778 14.962 18.2038 14.962C19.2288 14.962 19.8998 15.724 19.8998 16.818C19.8998 17.9 19.2298 18.674 18.2038 18.674C17.1788 18.674 16.5078 17.9 16.5078 16.818ZM25.1788 14.913C24.2038 14.913 23.5458 15.651 23.5458 16.659C23.5458 17.679 24.2168 18.441 25.1788 18.441C26.2418 18.441 26.9508 17.667 26.9508 16.659C26.9508 15.663 26.2418 14.913 25.1788 14.913ZM30.8298 16.818C30.8298 15.724 31.4998 14.962 32.5248 14.962C33.5508 14.962 34.2218 15.724 34.2218 16.818C34.2218 17.9 33.5508 18.674 32.5248 18.674C31.4998 18.674 30.8298 17.9 30.8298 16.818ZM41.1438 16.83C41.1438 15.737 41.8278 14.975 42.9038 14.975C43.9798 14.975 44.6248 15.749 44.6248 16.831C44.6248 17.912 43.9798 18.675 42.9038 18.675C41.8278 18.675 41.1438 17.924 41.1438 16.83Z" fill="white"/>
<path fill-rule="evenodd" clip-rule="evenodd" d="M40.5001 29.678C62.0071 29.678 79.4421 23.737 79.4421 16.408C79.4421 9.08002 62.0071 3.14001 40.5001 3.14001C18.9931 3.14001 1.55811 9.08002 1.55811 16.41C1.55811 23.738 18.9931 29.678 40.5001 29.678ZM14.0061 19.867V10.722H12.4601V19.867H14.0061ZM14.9511 16.818C14.9511 18.687 16.2421 20.014 18.2041 20.014C20.1661 20.014 21.4571 18.687 21.4571 16.818C21.4571 14.95 20.1661 13.622 18.2041 13.622C16.2421 13.622 14.9511 14.95 14.9511 16.818ZM24.9131 19.744C23.1531 19.744 21.9771 18.465 21.9771 16.695C21.9771 14.913 23.1791 13.598 24.9641 13.598C25.8881 13.598 26.6731 13.979 27.0521 14.618L27.1411 13.795H28.5081V19.559C28.5081 21.563 27.2171 22.854 25.1921 22.854C23.4701 22.854 22.2171 21.821 22.0151 20.236H23.5711C23.6601 21.034 24.3181 21.489 25.2811 21.489C26.3561 21.489 27.0011 20.826 27.0011 19.829V18.797C26.6091 19.387 25.8241 19.744 24.9131 19.744ZM29.2731 16.818C29.2731 18.687 30.5631 20.014 32.5251 20.014C34.4871 20.014 35.7781 18.687 35.7781 16.818C35.7781 14.95 34.4881 13.622 32.5251 13.622C30.5631 13.622 29.2721 14.95 29.2721 16.818H29.2731ZM38.3731 11.656C38.3717 11.7756 38.3466 11.8937 38.2994 12.0036C38.2522 12.1135 38.1838 12.2129 38.098 12.2963C38.0122 12.3796 37.9108 12.4452 37.7997 12.4893C37.6885 12.5333 37.5697 12.555 37.4501 12.553C37.3308 12.556 37.2121 12.5349 37.1011 12.4911C36.9901 12.4472 36.8891 12.3815 36.804 12.2978C36.7189 12.2141 36.6515 12.1142 36.6058 12.0039C36.5602 11.8937 36.5371 11.7754 36.5381 11.656C36.5381 11.164 36.9311 10.771 37.4501 10.771C37.9561 10.771 38.3731 11.164 38.3731 11.656ZM38.2221 13.795V19.867H36.6781V13.795H38.2221ZM39.5751 22.681H41.0811V19.031C41.4731 19.658 42.3211 20.027 43.2581 20.027C45.1061 20.027 46.2081 18.65 46.1821 16.757C46.1441 14.852 45.0181 13.61 43.2451 13.61C42.2961 13.61 41.4351 14.016 41.0551 14.716L40.9671 13.795H39.5751V22.681ZM49.0801 20.027C47.5871 20.027 46.6251 19.252 46.5741 18.047H47.9791C47.9791 18.577 48.3721 18.883 49.0551 18.883C49.6251 18.883 50.0931 18.663 50.0931 18.183C50.0931 17.839 49.8401 17.654 49.4351 17.543L48.3461 17.273C47.1441 16.966 46.6761 16.314 46.6761 15.528C46.6761 14.372 47.6761 13.61 49.0171 13.61C50.3721 13.61 51.2961 14.372 51.3471 15.577H49.9401C49.9401 15.048 49.5601 14.729 48.9781 14.729C48.4211 14.729 48.0801 15.024 48.0801 15.442C48.0801 15.835 48.3961 15.995 48.8641 16.118L49.9661 16.376C50.9911 16.622 51.5481 17.212 51.5481 18.084C51.5481 19.264 50.5481 20.027 49.0801 20.027ZM54.7521 20.027C55.6001 20.027 56.4101 19.645 56.7771 19.08L56.8791 19.867H58.3221V13.795H56.7771V16.978C56.7771 18.072 56.3471 18.687 55.3341 18.687C54.5501 18.687 54.0051 18.318 54.0051 17.064V13.794H52.4611V17.593C52.4611 19.043 53.2711 20.027 54.7521 20.027ZM61.2291 16.376V19.866H59.6851V13.795H61.1021L61.1781 14.483C61.5451 13.943 62.2041 13.61 62.9381 13.61C63.9751 13.61 64.6591 14.053 65.0011 14.766C65.3051 14.053 66.0511 13.61 67.0011 13.61C68.5201 13.61 69.3171 14.495 69.3171 15.896V19.866H67.8231V16.241C67.8231 15.381 67.3431 14.925 66.5961 14.925C65.8621 14.925 65.2791 15.393 65.2791 16.388V19.867H63.7731V16.24C63.7731 15.38 63.2931 14.924 62.5581 14.924C61.8241 14.924 61.2281 15.392 61.2281 16.374L61.2291 16.376Z" fill="white"/>
</g>
</g>
<defs>
<clipPath id="clip0_34_196">
<rect width="81" height="32" fill="white" transform="translate(0 0.47998)"/>
</clipPath>
<clipPath id="clip1_34_196">
<rect width="81" height="32" fill="white" transform="translate(0 0.47998)"/>
</clipPath>
</defs>
</svg>
