<svg width="116" height="33" viewBox="0 0 116 33" fill="none" xmlns="http://www.w3.org/2000/svg">
<g opacity="0.5" clip-path="url(#clip0_34_186)">
<g clip-path="url(#clip1_34_186)">
<path d="M65.106 21.5169H67.588V12.3899H65.106V21.5169ZM65.106 10.9649H67.588V8.79494H65.106V10.9649ZM69.186 24.5069H71.668V20.4849H71.704C72.233 21.2679 73.091 21.7849 74.404 21.7849C76.812 21.7849 78.454 19.9149 78.454 16.9619C78.454 14.1149 76.867 12.1399 74.386 12.1399C73.109 12.1399 72.233 12.7269 71.631 13.5269H71.576V12.3899H69.186V24.5069ZM73.875 19.7729C72.397 19.7729 71.613 18.6879 71.613 17.0329C71.613 15.3959 72.233 14.0969 73.784 14.0969C75.316 14.0969 75.936 15.3069 75.936 17.0329C75.936 18.7589 75.134 19.7729 73.875 19.7729ZM83.403 21.7839C85.739 21.7839 87.344 20.6809 87.344 18.8479C87.344 16.7129 85.611 16.2859 84.042 15.9649C82.71 15.6989 81.47 15.6269 81.47 14.8449C81.47 14.1849 82.108 13.8299 83.075 13.8299C84.133 13.8299 84.772 14.1859 84.881 15.1649H87.125C86.943 13.3319 85.575 12.1389 83.112 12.1389C80.977 12.1389 79.299 13.0829 79.299 15.0579C79.299 17.0509 80.941 17.4959 82.619 17.8159C83.896 18.0659 85.082 18.1539 85.082 19.0259C85.082 19.6659 84.462 20.0759 83.367 20.0759C82.254 20.0759 81.487 19.6129 81.324 18.5629H79.025C79.171 20.5029 80.685 21.7839 83.403 21.7839ZM96.764 21.5169V12.3899H94.283V17.6569C94.283 18.8669 93.572 19.7209 92.404 19.7209C91.346 19.7209 90.854 19.1339 90.854 18.0659V12.3899H88.39V18.4749C88.39 20.4679 89.558 21.7669 91.638 21.7669C92.952 21.7669 93.681 21.2869 94.32 20.4509H94.375V21.5179H96.765L96.764 21.5169ZM98.369 21.5169H100.85V16.2149C100.85 15.0049 101.526 14.2219 102.529 14.2219C103.441 14.2219 103.97 14.7549 103.97 15.7869V21.5169H106.451V16.2149C106.451 15.0049 107.09 14.2219 108.13 14.2219C109.042 14.2219 109.571 14.7549 109.571 15.7869V21.5169H112.052V15.3779C112.052 13.3849 110.939 12.1389 108.969 12.1389C107.783 12.1389 106.798 12.7439 106.159 13.7409H106.123C105.667 12.7809 104.718 12.1399 103.532 12.1399C102.237 12.1399 101.325 12.7799 100.814 13.6159H100.759V12.3899H98.369V21.5169ZM0.438965 21.5169H2.91896V8.79395H0.439965L0.438965 21.5169ZM8.98697 21.7839C11.887 21.7839 13.876 19.6839 13.876 16.9619C13.876 14.2389 11.887 12.1399 8.98596 12.1399C6.08596 12.1399 4.09696 14.2399 4.09696 16.9619C4.09696 19.6839 6.08597 21.7839 8.98697 21.7839ZM8.98697 19.9339C7.45397 19.9339 6.61496 18.7409 6.61496 16.9619C6.61496 15.1819 7.45397 13.9719 8.98697 13.9719C10.501 13.9719 11.358 15.1819 11.358 16.9619C11.358 18.7419 10.501 19.9329 8.98697 19.9329V19.9339ZM19.152 24.6309C20.539 24.6309 21.742 24.3109 22.527 23.5989C23.221 22.9759 23.64 22.1039 23.64 20.8229V12.3899H21.25V13.3499H21.214C20.648 12.5849 19.791 12.1399 18.624 12.1399C16.252 12.1399 14.574 13.8839 14.574 16.6069C14.574 19.3649 16.616 20.9669 18.696 20.9669C19.882 20.9669 20.593 20.5039 21.141 19.8989H21.196V20.8949C21.196 22.1409 20.52 22.7989 19.116 22.7989C17.966 22.7989 17.437 22.3539 17.236 21.7849H14.774C15.029 23.5649 16.598 24.6319 19.152 24.6319V24.6309ZM19.116 19.0259C17.839 19.0259 17 18.1189 17 16.5699C17 15.0399 17.839 14.0799 19.098 14.0799C20.593 14.0799 21.323 15.2179 21.323 16.5529C21.323 17.9049 20.685 19.0259 19.116 19.0259ZM29.671 21.7839C32.571 21.7839 34.561 19.6839 34.561 16.9619C34.561 14.2389 32.571 12.1399 29.671 12.1399C26.771 12.1399 24.781 14.2399 24.781 16.9619C24.781 19.6839 26.771 21.7839 29.671 21.7839ZM29.671 19.9339C28.139 19.9339 27.299 18.7409 27.299 16.9619C27.299 15.1819 28.139 13.9719 29.671 13.9719C31.185 13.9719 32.043 15.1819 32.043 16.9619C32.043 18.7419 31.185 19.9329 29.671 19.9329V19.9339ZM112.954 10.8899C112.954 10.4799 113.294 10.1489 113.714 10.1489H115.234C115.654 10.1489 115.995 10.4809 115.995 10.8899C115.995 11.2999 115.654 11.6319 115.234 11.6319H113.714C113.615 11.6333 113.517 11.6151 113.426 11.5785C113.334 11.5419 113.251 11.4876 113.18 11.4187C113.109 11.3497 113.053 11.2675 113.014 11.1768C112.976 11.0861 112.955 10.9886 112.954 10.8899Z" fill="white"/>
<path fill-rule="evenodd" clip-rule="evenodd" d="M49.6068 6.19397C55.4848 6.19397 60.2498 10.842 60.2498 16.574C60.2498 22.307 55.4848 26.954 49.6068 26.954C43.7298 26.954 38.9648 22.307 38.9648 16.574C38.9648 10.842 43.7298 6.19397 49.6068 6.19397ZM49.2228 6.97097C48.0088 7.13797 46.8528 8.08897 45.9548 9.68097C45.6948 10.142 45.4598 10.652 45.2548 11.203C46.4748 10.903 47.8148 10.727 49.2228 10.7V6.97097ZM44.3558 11.452C44.6098 10.673 44.9218 9.95597 45.2808 9.31897C45.7258 8.52997 46.2538 7.84897 46.8488 7.32597C43.6138 8.24197 41.0638 10.729 40.1248 13.884C40.6608 13.304 41.3598 12.789 42.1688 12.354C42.8676 11.9846 43.5999 11.6825 44.3558 11.452ZM44.0998 12.329C43.7798 13.5949 43.607 14.8934 43.5848 16.199H39.7598C39.9308 15.015 40.9068 13.887 42.5378 13.012C43.0403 12.7454 43.5631 12.5171 44.0998 12.329ZM44.3538 16.199C44.3858 14.702 44.6068 13.296 44.9728 12.054C46.3586 11.6756 47.7865 11.473 49.2228 11.451V13.071C48.9327 13.7852 48.498 14.4317 47.9461 14.97C47.3943 15.5083 46.7371 15.9267 46.0158 16.199H44.3538ZM43.5838 16.949H39.7608C39.9318 18.134 40.9078 19.261 42.5388 20.137C43.0128 20.39 43.5358 20.62 44.0998 20.819C43.7798 19.5531 43.606 18.2545 43.5838 16.949ZM44.9728 21.095C44.5852 19.7465 44.3771 18.3528 44.3538 16.95H46.0158C46.737 17.2221 47.3941 17.6404 47.946 18.1785C48.4979 18.7166 48.9326 19.3629 49.2228 20.077V21.698C47.7865 21.6759 46.3586 21.4733 44.9728 21.095ZM44.3558 21.697C43.5998 21.466 42.8675 21.1637 42.1688 20.794C41.3588 20.36 40.6608 19.845 40.1248 19.265C41.0648 22.42 43.6138 24.907 46.8488 25.823C46.2538 25.3 45.7258 24.619 45.2808 23.83C44.9031 23.1508 44.5933 22.437 44.3558 21.697ZM49.2228 26.177C48.0088 26.011 46.8528 25.06 45.9548 23.468C45.6948 23.006 45.4598 22.496 45.2548 21.946C46.4748 22.245 47.8148 22.421 49.2228 22.448V26.177ZM52.3658 25.823C52.9608 25.3 53.4888 24.619 53.9338 23.83C54.2928 23.192 54.6038 22.476 54.8588 21.696C55.6148 21.4653 56.3471 21.1633 57.0458 20.794C57.8548 20.36 58.5528 19.845 59.0898 19.265C58.1498 22.42 55.5998 24.907 52.3658 25.823ZM53.9598 21.946C53.7548 22.496 53.5198 23.006 53.2598 23.468C52.3618 25.059 51.2058 26.011 49.9918 26.178V22.448C51.3289 22.4266 52.6596 22.2583 53.9598 21.946ZM55.1138 20.819C55.6788 20.619 56.2018 20.39 56.6748 20.137C58.3068 19.261 59.2818 18.134 59.4528 16.949H55.6298C55.6072 18.2545 55.434 19.5531 55.1138 20.819ZM54.8608 16.949C54.8374 18.3522 54.629 19.7463 54.2408 21.095C52.8554 21.4732 51.4278 21.6758 49.9918 21.698V20.078C50.2821 19.3636 50.7169 18.717 51.269 18.1788C51.821 17.6405 52.4784 17.2221 53.1998 16.95H54.8598L54.8608 16.949ZM55.6298 16.199H59.4528C59.2828 15.015 58.3068 13.887 56.6748 13.012C56.1729 12.7451 55.6514 12.5167 55.1148 12.329C55.4208 13.519 55.6018 14.827 55.6298 16.199ZM54.2418 12.054C54.6078 13.296 54.8288 14.702 54.8608 16.199H53.1998C52.4783 15.9267 51.8209 15.5082 51.2688 14.9697C50.7168 14.4313 50.282 13.7845 49.9918 13.07V11.45C51.5268 11.482 52.9678 11.697 54.2418 12.054ZM54.8588 11.452C55.6148 11.6829 56.3471 11.9853 57.0458 12.355C57.8548 12.789 58.5528 13.303 59.0898 13.884C58.1498 10.729 55.5998 8.24197 52.3658 7.32597C52.9608 7.84897 53.4888 8.52997 53.9338 9.31897C54.2928 9.95597 54.6038 10.673 54.8588 11.452ZM49.9918 6.97097C51.2058 7.13797 52.3618 8.08897 53.2588 9.68097C53.5188 10.142 53.7548 10.652 53.9588 11.203C52.6589 10.8904 51.3286 10.7217 49.9918 10.7V6.97097Z" fill="white"/>
</g>
</g>
<defs>
<clipPath id="clip0_34_186">
<rect width="116" height="32" fill="white" transform="translate(0 0.47998)"/>
</clipPath>
<clipPath id="clip1_34_186">
<rect width="116" height="32" fill="white" transform="translate(0 0.47998)"/>
</clipPath>
</defs>
</svg>
