<?xml version="1.0" standalone="no"?>
<!DOCTYPE svg PUBLIC "-//W3C//DTD SVG 20010904//EN"
 "http://www.w3.org/TR/2001/REC-SVG-20010904/DTD/svg10.dtd">
<svg version="1.0" xmlns="http://www.w3.org/2000/svg"
 width="640.000000pt" height="640.000000pt" viewBox="0 0 640.000000 640.000000"
 preserveAspectRatio="xMidYMid meet">

<g transform="translate(0.000000,640.000000) scale(0.100000,-0.100000)"
fill="#000000" stroke="none">
<path d="M4423 4693 c9 -2 23 -2 30 0 6 3 -1 5 -18 5 -16 0 -22 -2 -12 -5z"/>
<path d="M4313 4683 c9 -2 25 -2 35 0 9 3 1 5 -18 5 -19 0 -27 -2 -17 -5z"/>
<path d="M3995 4655 c-115 -13 -347 -37 -515 -54 -168 -17 -627 -65 -1020
-106 -393 -40 -877 -90 -1075 -111 -198 -20 -362 -38 -364 -40 -5 -5 6 -110
159 -1573 66 -624 122 -1136 125 -1139 6 -6 578 53 2830 293 237 25 493 52
570 61 483 51 666 72 670 76 3 2 -11 148 -30 324 -19 175 -38 355 -42 399 -4
56 -9 74 -15 60 -6 -15 -7 -12 -3 9 9 43 -6 191 -17 174 -5 -8 -6 10 -2 46 4
39 3 57 -4 52 -10 -6 -22 15 -22 37 0 7 4 6 10 -3 6 -10 9 -1 8 30 0 31 -3 39
-8 25 -6 -17 -10 -14 -28 25 -12 25 -21 37 -22 28 0 -9 5 -20 10 -23 6 -3 10
-15 10 -25 0 -10 6 -20 13 -23 7 -2 8 -8 3 -13 -5 -5 -11 -4 -13 4 -3 6 -9 10
-14 7 -5 -4 -6 2 -2 11 4 12 3 15 -5 10 -8 -5 -12 2 -13 21 -1 44 -7 67 -18
71 -6 2 -11 19 -11 38 0 19 -5 34 -10 34 -6 0 -10 -6 -9 -12 3 -27 -1 -48 -11
-48 -5 0 -10 21 -10 46 0 41 -2 46 -19 41 -17 -4 -18 -2 -11 18 8 20 6 24 -13
27 -14 2 -22 10 -23 23 -1 11 -2 23 -4 28 -4 12 -7 26 -9 40 0 8 -11 13 -23
13 -15 -1 -27 7 -33 22 -6 13 -19 22 -32 22 -20 0 -22 6 -29 80 -6 69 -9 80
-25 80 -11 0 -19 -7 -19 -17 0 -9 -3 -13 -7 -9 -11 10 -12 86 -2 86 5 0 9 5 9
10 0 6 -9 10 -20 10 -11 0 -20 5 -20 10 0 14 -37 12 -43 -2 -3 -7 -6 8 -6 34
-1 37 -5 48 -21 53 -16 5 -18 10 -10 25 8 15 6 20 -9 25 -13 4 -17 12 -14 26
6 21 -31 69 -53 69 -7 0 -16 19 -20 45 -5 39 -9 45 -25 40 -17 -6 -19 -1 -19
34 0 23 -4 41 -10 41 -5 0 -10 7 -10 15 0 18 -36 20 -43 3 -2 -7 -8 4 -12 25
-7 35 -24 52 -26 25 0 -7 -5 -2 -10 11 -6 16 -6 28 2 37 13 16 4 34 -19 34
-15 0 -15 2 -2 10 10 6 11 10 3 10 -8 0 -13 15 -14 38 l-1 37 -13 -45 c-12
-45 -17 -43 -29 13 -5 21 -3 27 11 28 12 1 9 3 -7 8 -18 5 -25 14 -25 31 0 20
-6 26 -30 30 -28 5 -30 8 -30 53 0 36 -4 47 -16 47 -8 0 -24 7 -35 15 -24 18
-52 17 -309 -10z m282 9 c-3 -3 -12 -4 -19 -1 -8 3 -5 6 6 6 11 1 17 -2 13 -5z
m167 -749 c32 -8 62 -12 68 -9 7 5 8 2 3 -6 -6 -10 -4 -12 11 -6 10 4 15 4 11
0 -10 -10 72 -56 86 -47 5 3 7 1 4 -5 -4 -5 17 -32 45 -58 29 -26 48 -45 42
-41 -7 4 0 -15 14 -42 15 -27 31 -47 36 -44 5 4 7 0 4 -9 -3 -8 0 -39 8 -68
22 -83 28 -224 15 -343 -7 -59 -14 -114 -18 -122 -4 -13 -73 -15 -484 -15
l-479 0 0 -53 c0 -72 25 -164 57 -205 37 -49 103 -76 188 -76 105 -1 168 25
237 96 l58 58 185 0 c102 0 185 -3 185 -7 0 -28 -96 -161 -169 -233 -148 -146
-310 -210 -531 -210 -304 0 -490 125 -556 373 -21 80 -28 231 -15 332 44 331
186 551 436 678 47 23 161 61 215 70 66 11 289 6 344 -8z m-2418 -435 c18
-228 33 -425 35 -438 3 -13 70 148 175 415 l171 438 187 3 c144 2 187 0 190
-10 2 -7 16 -204 31 -438 14 -234 27 -426 28 -427 1 -1 26 55 55 125 28 70
110 267 180 437 l128 310 197 3 c108 1 197 0 197 -3 0 -4 -58 -131 -129 -283
-70 -152 -212 -459 -316 -682 -103 -223 -191 -409 -195 -413 -8 -8 -370 -10
-378 -2 -2 2 -21 176 -42 385 -21 210 -40 384 -43 386 -2 2 -82 -172 -178
-386 l-174 -390 -192 0 c-183 0 -193 1 -193 19 0 11 -20 205 -45 433 -111
1027 -102 925 -78 930 10 2 94 3 188 3 l170 0 31 -415z m2814 340 c0 -11 -4
-20 -10 -20 -5 0 -10 9 -10 20 0 11 5 20 10 20 6 0 10 -9 10 -20z m-155 -28
c-3 -3 -11 0 -18 7 -9 10 -8 11 6 5 10 -3 15 -9 12 -12z m335 -287 c16 -19 0
-19 -26 0 -16 12 -16 14 -3 15 9 0 22 -7 29 -15z m197 -357 c-3 -8 -6 -5 -6 6
-1 11 2 17 5 13 3 -3 4 -12 1 -19z m0 -70 c-3 -7 -5 -2 -5 12 0 14 2 19 5 13
2 -7 2 -19 0 -25z m43 16 c0 -8 -4 -12 -10 -9 -5 3 -10 10 -10 16 0 5 5 9 10
9 6 0 10 -7 10 -16z"/>
<path d="M4100 3621 c-46 -14 -86 -39 -126 -80 -38 -38 -94 -129 -109 -178
l-6 -23 285 0 286 0 0 73 c-1 112 -36 174 -117 203 -41 14 -172 17 -213 5z"/>
<path d="M4338 4663 c12 -2 32 -2 45 0 12 2 2 4 -23 4 -25 0 -35 -2 -22 -4z"/>
</g>
</svg>
