<svg width="44" height="40" viewBox="0 0 44 40" fill="none" xmlns="http://www.w3.org/2000/svg">
<rect width="44" height="40" rx="8" fill="#17B574"/>
<path d="M14.8133 13.3915H11V24.8308H14.8133V13.3915Z" fill="white"/>
<path d="M16.6221 24.8308V21.639L22.1459 16.8015V16.5795H16.8495V13.3915H27.1014V16.5795L21.5814 21.4208V21.639H27.3287V24.8308H16.6221Z" fill="white"/>
<path d="M32.9505 13.3915H29.1372V24.8308H32.9505V13.3915Z" fill="white"/>
<path d="M11.0898 26.4053H12.1502L12.9718 30.3277H13.1166L13.9382 26.4053H15.3859L16.2075 30.3277H16.3523L17.1739 26.4053H18.2342L17.1739 31.2241H15.4367L14.7129 27.5391H14.6151L13.8913 31.2241H12.1502L11.0898 26.4053Z" fill="white"/>
<path d="M19.4548 30.5959C18.9618 30.1132 18.7153 29.5195 18.7153 28.8147C18.7153 28.1099 18.9618 27.5162 19.4548 27.0335C19.9478 26.5509 20.5543 26.3095 21.2742 26.3095C21.9941 26.3095 22.6005 26.5509 23.0935 27.0335C23.5865 27.5162 23.833 28.1099 23.833 28.8147C23.833 29.5195 23.5865 30.1132 23.0935 30.5959C22.6005 31.0785 21.9941 31.3199 21.2742 31.3199C20.5543 31.3199 19.9478 31.0785 19.4548 30.5959ZM20.1904 27.6464C19.9126 27.9375 19.7756 28.3282 19.7756 28.8147C19.7756 29.3012 19.9126 29.6881 20.1904 29.983C20.4682 30.2741 20.8281 30.4235 21.2703 30.4235C21.7124 30.4235 22.0763 30.278 22.3501 29.983C22.6279 29.6919 22.7649 29.3012 22.7649 28.8147C22.7649 28.3282 22.6279 27.9413 22.3501 27.6464C22.0723 27.3553 21.7124 27.2059 21.2703 27.2059C20.8281 27.2059 20.4643 27.3514 20.1904 27.6464Z" fill="white"/>
<path d="M24.6978 31.2241V26.4053H25.7111V27.114H25.7581C25.8285 26.9799 25.9302 26.8573 26.0672 26.7347C26.3645 26.4819 26.7088 26.3555 27.1079 26.3555H27.687V27.3016H27.061C26.6697 27.3016 26.345 27.4242 26.0906 27.6655C25.8363 27.9069 25.7111 28.2286 25.7111 28.6232V31.2203H24.6978V31.2241Z" fill="white"/>
<path d="M28.4614 31.2241V26.3976H29.4748V28.2937H30.1986L31.6932 26.4053H32.8514L31.0672 28.627L32.9961 31.2241H31.7402L30.2456 29.1939H29.4748V31.2241H28.4614Z" fill="white"/>
<path d="M32.9999 8.46154H11.0977V11.9077H32.9999V8.46154Z" fill="url(#paint0_linear_134_116)"/>
<defs>
<linearGradient id="paint0_linear_134_116" x1="11.0977" y1="10.1846" x2="32.9999" y2="10.1846" gradientUnits="userSpaceOnUse">
<stop offset="0.19" stop-color="white"/>
<stop offset="0.26" stop-color="#F4FAFA"/>
<stop offset="0.38" stop-color="#D9ECEC"/>
<stop offset="0.53" stop-color="#ABFFDC"/>
<stop offset="0.71" stop-color="#78FFC7" stop-opacity="0.72"/>
<stop offset="0.842557" stop-color="#A6FFDA" stop-opacity="0.38"/>
<stop offset="1" stop-color="white" stop-opacity="0"/>
</linearGradient>
</defs>
</svg>
