<svg width="24" height="25" viewBox="0 0 24 25" fill="none" xmlns="http://www.w3.org/2000/svg">
<path d="M21 5.41992H3C2.80109 5.41992 2.61032 5.49894 2.46967 5.63959C2.32902 5.78024 2.25 5.97101 2.25 6.16992V18.9199C2.25 19.3177 2.40804 19.6993 2.68934 19.9806C2.97064 20.2619 3.35218 20.4199 3.75 20.4199H20.25C20.6478 20.4199 21.0294 20.2619 21.3107 19.9806C21.592 19.6993 21.75 19.3177 21.75 18.9199V6.16992C21.75 5.97101 21.671 5.78024 21.5303 5.63959C21.3897 5.49894 21.1989 5.41992 21 5.41992ZM19.072 6.91992L12 13.4029L4.928 6.91992H19.072ZM20.25 18.9199H3.75V7.87492L11.493 14.9729C11.6313 15.0998 11.8123 15.1702 12 15.1702C12.1877 15.1702 12.3687 15.0998 12.507 14.9729L20.25 7.87492V18.9199Z" fill="url(#paint0_linear_34_1005)"/>
<defs>
<linearGradient id="paint0_linear_34_1005" x1="2.25" y1="5.41992" x2="16.748" y2="24.2679" gradientUnits="userSpaceOnUse">
<stop stop-color="#68F7BB"/>
<stop offset="1" stop-color="#00A360"/>
</linearGradient>
</defs>
</svg>
