<svg width="22" height="23" viewBox="0 0 22 23" fill="none" xmlns="http://www.w3.org/2000/svg">
<g clip-path="url(#clip0_34_916)">
<rect y="0.589844" width="22" height="22" rx="11" fill="url(#paint0_linear_34_916)"/>
<g opacity="0.7" clip-path="url(#clip1_34_916)">
<g clip-path="url(#clip2_34_916)">
<path d="M14.75 11.5898C14.75 11.6727 14.7171 11.7522 14.6585 11.8108C14.5999 11.8694 14.5204 11.9023 14.4375 11.9023H11.3125V15.0273C11.3125 15.1102 11.2796 15.1897 11.221 15.2483C11.1624 15.3069 11.0829 15.3398 11 15.3398C10.9171 15.3398 10.8376 15.3069 10.779 15.2483C10.7204 15.1897 10.6875 15.1102 10.6875 15.0273V11.9023H7.5625C7.47962 11.9023 7.40013 11.8694 7.34153 11.8108C7.28292 11.7522 7.25 11.6727 7.25 11.5898C7.25 11.507 7.28292 11.4275 7.34153 11.3689C7.40013 11.3103 7.47962 11.2773 7.5625 11.2773H10.6875V8.15234C10.6875 8.06946 10.7204 7.98998 10.779 7.93137C10.8376 7.87277 10.9171 7.83984 11 7.83984C11.0829 7.83984 11.1624 7.87277 11.221 7.93137C11.2796 7.98998 11.3125 8.06946 11.3125 8.15234V11.2773H14.4375C14.5204 11.2773 14.5999 11.3103 14.6585 11.3689C14.7171 11.4275 14.75 11.507 14.75 11.5898Z" fill="white"/>
</g>
</g>
<mask id="path-3-inside-1_34_916" fill="white">
<path d="M0 11.5898C0 5.51471 4.92487 0.589844 11 0.589844C17.0751 0.589844 22 5.51471 22 11.5898C22 17.665 17.0751 22.5898 11 22.5898C4.92487 22.5898 0 17.665 0 11.5898Z"/>
</mask>
<path d="M11 21.5898C5.47715 21.5898 1 17.1127 1 11.5898H-1C-1 18.2173 4.37258 23.5898 11 23.5898V21.5898ZM21 11.5898C21 17.1127 16.5228 21.5898 11 21.5898V23.5898C17.6274 23.5898 23 18.2173 23 11.5898H21ZM11 1.58984C16.5228 1.58984 21 6.067 21 11.5898H23C23 4.96243 17.6274 -0.410156 11 -0.410156V1.58984ZM11 -0.410156C4.37258 -0.410156 -1 4.96243 -1 11.5898H1C1 6.067 5.47715 1.58984 11 1.58984V-0.410156Z" fill="white" fill-opacity="0.1" mask="url(#path-3-inside-1_34_916)"/>
</g>
<defs>
<linearGradient id="paint0_linear_34_916" x1="22" y1="11.5898" x2="0" y2="11.5898" gradientUnits="userSpaceOnUse">
<stop stop-color="white" stop-opacity="0.05"/>
<stop offset="0.5" stop-color="white" stop-opacity="0.15"/>
<stop offset="1" stop-color="white" stop-opacity="0.05"/>
</linearGradient>
<clipPath id="clip0_34_916">
<rect y="0.589844" width="22" height="22" rx="11" fill="white"/>
</clipPath>
<clipPath id="clip1_34_916">
<rect width="10" height="10" fill="white" transform="translate(6 6.58984)"/>
</clipPath>
<clipPath id="clip2_34_916">
<rect width="10" height="10" fill="white" transform="translate(6 6.58984)"/>
</clipPath>
</defs>
</svg>
