<svg width="24" height="25" viewBox="0 0 24 25" fill="none" xmlns="http://www.w3.org/2000/svg">
<path d="M20.25 5.41992H3.75003C3.35221 5.41992 2.97067 5.57796 2.68937 5.85926C2.40807 6.14057 2.25003 6.5221 2.25003 6.91992V21.9199C2.2482 22.2059 2.32894 22.4863 2.48255 22.7276C2.63616 22.9688 2.85612 23.1606 3.11603 23.2799C3.37448 23.4007 3.66217 23.4447 3.94491 23.4068C4.22764 23.3688 4.49355 23.2505 4.71103 23.0659L4.71903 23.0589L7.78103 20.4199H20.25C20.6479 20.4199 21.0294 20.2619 21.3107 19.9806C21.592 19.6993 21.75 19.3177 21.75 18.9199V6.91992C21.75 6.5221 21.592 6.14057 21.3107 5.85926C21.0294 5.57796 20.6479 5.41992 20.25 5.41992ZM20.25 18.9199H7.50003C7.32003 18.9201 7.14611 18.9851 7.01003 19.1029L3.75003 21.9199V6.91992H20.25V18.9199ZM8.25003 11.4199C8.25003 11.221 8.32905 11.0302 8.4697 10.8896C8.61035 10.7489 8.80112 10.6699 9.00003 10.6699H15C15.1989 10.6699 15.3897 10.7489 15.5304 10.8896C15.671 11.0302 15.75 11.221 15.75 11.4199C15.75 11.6188 15.671 11.8096 15.5304 11.9503C15.3897 12.0909 15.1989 12.1699 15 12.1699H9.00003C8.80112 12.1699 8.61035 12.0909 8.4697 11.9503C8.32905 11.8096 8.25003 11.6188 8.25003 11.4199ZM8.25003 14.4199C8.25003 14.221 8.32905 14.0302 8.4697 13.8896C8.61035 13.7489 8.80112 13.6699 9.00003 13.6699H15C15.1989 13.6699 15.3897 13.7489 15.5304 13.8896C15.671 14.0302 15.75 14.221 15.75 14.4199C15.75 14.6188 15.671 14.8096 15.5304 14.9503C15.3897 15.0909 15.1989 15.1699 15 15.1699H9.00003C8.80112 15.1699 8.61035 15.0909 8.4697 14.9503C8.32905 14.8096 8.25003 14.6188 8.25003 14.4199Z" fill="url(#paint0_linear_34_993)"/>
<defs>
<linearGradient id="paint0_linear_34_993" x1="2.25003" y1="5.41992" x2="20.192" y2="24.8579" gradientUnits="userSpaceOnUse">
<stop stop-color="#68F7BB"/>
<stop offset="1" stop-color="#00A360"/>
</linearGradient>
</defs>
</svg>
