<svg width="124" height="124" viewBox="0 0 124 124" fill="none" xmlns="http://www.w3.org/2000/svg">
<path d="M97.0561 64.6931L69.4923 54.5077L59.3389 26.9225C58.7376 25.2891 57.6498 23.8793 56.2222 22.8835C54.7945 21.8878 53.0958 21.3538 51.3551 21.3538C49.6145 21.3538 47.9158 21.8878 46.4881 22.8835C45.0605 23.8793 43.9726 25.2891 43.3714 26.9225L33.1539 54.5077L5.56868 64.6611C3.93521 65.2624 2.52548 66.3502 1.5297 67.7779C0.533911 69.2055 0 70.9042 0 72.6449C0 74.3855 0.533911 76.0842 1.5297 77.5119C2.52548 78.9395 3.93521 80.0274 5.56868 80.6286L33.1539 90.8462L43.3072 118.431C43.9085 120.065 44.9964 121.475 46.424 122.47C47.8517 123.466 49.5504 124 51.291 124C53.0316 124 54.7304 123.466 56.158 122.47C57.5857 121.475 58.6735 120.065 59.2748 118.431L69.4923 90.8462L97.0775 80.6928C98.7109 80.0915 100.121 79.0036 101.116 77.576C102.112 76.1483 102.646 74.4496 102.646 72.709C102.646 70.9684 102.112 69.2696 101.116 67.842C100.121 66.4143 98.7109 65.3265 97.0775 64.7252L97.0561 64.6931ZM64.6828 83.4823C64.1025 83.6961 63.5755 84.0334 63.1382 84.4707C62.7009 84.908 62.3637 85.435 62.1498 86.0153L51.3231 115.348L40.5177 86.0367C40.3042 85.4502 39.9649 84.9177 39.5236 84.4764C39.0823 84.0351 38.5498 83.6958 37.9634 83.4823L8.65211 72.6769L37.9634 61.8716C38.5498 61.658 39.0823 61.3187 39.5236 60.8774C39.9649 60.4362 40.3042 59.9036 40.5177 59.3172L51.3231 30.006L62.1284 59.3172C62.3423 59.8975 62.6795 60.4245 63.1168 60.8618C63.5541 61.2991 64.0811 61.6363 64.6614 61.8502L93.9941 72.6769L64.6828 83.4823ZM68.4235 17.1005C68.4235 15.9666 68.8739 14.8792 69.6757 14.0775C70.4774 13.2758 71.5648 12.8253 72.6986 12.8253H81.2489V4.27511C81.2489 3.14128 81.6993 2.05389 82.501 1.25215C83.3028 0.450412 84.3902 0 85.524 0C86.6578 0 87.7452 0.450412 88.547 1.25215C89.3487 2.05389 89.7991 3.14128 89.7991 4.27511V12.8253H98.3493C99.4832 12.8253 100.571 13.2758 101.372 14.0775C102.174 14.8792 102.624 15.9666 102.624 17.1005C102.624 18.2343 102.174 19.3217 101.372 20.1234C100.571 20.9252 99.4832 21.3756 98.3493 21.3756H89.7991V29.9258C89.7991 31.0596 89.3487 32.147 88.547 32.9488C87.7452 33.7505 86.6578 34.2009 85.524 34.2009C84.3902 34.2009 83.3028 33.7505 82.501 32.9488C81.6993 32.147 81.2489 31.0596 81.2489 29.9258V21.3756H72.6986C71.5648 21.3756 70.4774 20.9252 69.6757 20.1234C68.8739 19.3217 68.4235 18.2343 68.4235 17.1005ZM124 42.7511C124 43.885 123.55 44.9724 122.748 45.7741C121.946 46.5758 120.859 47.0262 119.725 47.0262H115.45V51.3014C115.45 52.4352 114.999 53.5226 114.198 54.3243C113.396 55.1261 112.308 55.5765 111.175 55.5765C110.041 55.5765 108.953 55.1261 108.152 54.3243C107.35 53.5226 106.9 52.4352 106.9 51.3014V47.0262H102.624C101.491 47.0262 100.403 46.5758 99.6015 45.7741C98.7997 44.9724 98.3493 43.885 98.3493 42.7511C98.3493 41.6173 98.7997 40.5299 99.6015 39.7282C100.403 38.9264 101.491 38.476 102.624 38.476H106.9V34.2009C106.9 33.0671 107.35 31.9797 108.152 31.1779C108.953 30.3762 110.041 29.9258 111.175 29.9258C112.308 29.9258 113.396 30.3762 114.198 31.1779C114.999 31.9797 115.45 33.0671 115.45 34.2009V38.476H119.725C120.859 38.476 121.946 38.9264 122.748 39.7282C123.55 40.5299 124 41.6173 124 42.7511Z" fill="#00A360"/>
</svg>
