<svg width="92" height="92" viewBox="0 0 92 92" fill="none" xmlns="http://www.w3.org/2000/svg">
<path opacity="0.2" d="M48.875 38.8125C48.875 42.5085 47.779 46.1216 45.7256 49.1947C43.6722 52.2679 40.7536 54.6631 37.3389 56.0775C33.9242 57.4919 30.1668 57.862 26.5418 57.1409C22.9167 56.4199 19.5869 54.64 16.9735 52.0266C14.36 49.4131 12.5801 46.0833 11.8591 42.4583C11.138 38.8332 11.5081 35.0758 12.9225 31.6611C14.3369 28.2464 16.7321 25.3278 19.8053 23.2744C22.8784 21.221 26.4915 20.125 30.1875 20.125C35.1437 20.125 39.897 22.0939 43.4016 25.5984C46.9062 29.103 48.875 33.8563 48.875 38.8125Z" fill="#00A360"/>
<path d="M42.1366 56.7525C45.9898 54.1872 48.9152 50.45 50.4802 46.0936C52.0452 41.7371 52.1667 36.9927 50.8267 32.5619C49.4867 28.131 46.7563 24.249 43.0394 21.49C39.3225 18.7309 34.8164 17.2412 30.1874 17.2412C25.5583 17.2412 21.0522 18.7309 17.3353 21.49C13.6184 24.249 10.8881 28.131 9.54807 32.5619C8.20808 36.9927 8.32955 41.7371 9.89454 46.0936C11.4595 50.45 14.3849 54.1872 18.2382 56.7525C11.268 59.3214 5.31541 64.0752 1.26847 70.3045C1.05577 70.6206 0.908036 70.9759 0.833843 71.3496C0.75965 71.7233 0.760481 72.108 0.836287 72.4814C0.912093 72.8548 1.06136 73.2094 1.27542 73.5246C1.48948 73.8398 1.76405 74.1093 2.08318 74.3175C2.40231 74.5256 2.75963 74.6683 3.13437 74.7371C3.50911 74.8059 3.8938 74.7996 4.26607 74.7185C4.63834 74.6373 4.99077 74.483 5.30288 74.2645C5.61498 74.0459 5.88053 73.7675 6.08409 73.4454C8.69455 69.4304 12.2666 66.1311 16.4759 63.8472C20.6852 61.5632 25.3984 60.3669 30.1874 60.3669C34.9764 60.3669 39.6895 61.5632 43.8988 63.8472C48.1081 66.1311 51.6802 69.4304 54.2907 73.4454C54.7123 74.0722 55.3637 74.5077 56.104 74.658C56.8443 74.8083 57.6139 74.6612 58.2466 74.2486C58.8793 73.8359 59.3242 73.1908 59.485 72.4528C59.6459 71.7147 59.5098 70.943 59.1063 70.3045C55.0593 64.0752 49.1067 59.3214 42.1366 56.7525ZM14.3749 38.8125C14.3749 35.685 15.3023 32.6279 17.0398 30.0275C18.7773 27.4272 21.2468 25.4004 24.1362 24.2036C27.0255 23.0068 30.2049 22.6937 33.2722 23.3038C36.3396 23.9139 39.1571 25.4199 41.3685 27.6313C43.5799 29.8428 45.0859 32.6603 45.696 35.7276C46.3062 38.7949 45.993 41.9743 44.7962 44.8636C43.5994 47.753 41.5727 50.2226 38.9723 51.9601C36.372 53.6976 33.3148 54.625 30.1874 54.625C25.9951 54.6202 21.9759 52.9527 19.0115 49.9883C16.0471 47.0239 14.3796 43.0047 14.3749 38.8125ZM89.8939 74.2828C89.2553 74.6992 88.4774 74.8449 87.7314 74.6879C86.9853 74.5309 86.3322 74.084 85.9156 73.4454C83.3083 69.428 79.7367 66.1273 75.5266 63.8443C71.3164 61.5612 66.6017 60.3685 61.8124 60.375C61.0499 60.375 60.3186 60.0721 59.7794 59.5329C59.2403 58.9937 58.9374 58.2625 58.9374 57.5C58.9374 56.7375 59.2403 56.0062 59.7794 55.467C60.3186 54.9279 61.0499 54.625 61.8124 54.625C64.141 54.6228 66.4404 54.1063 68.5463 53.1124C70.6522 52.1185 72.5126 50.6718 73.9945 48.8756C75.4765 47.0794 76.5434 44.978 77.1191 42.7217C77.6948 40.4653 77.765 38.1096 77.3248 35.823C76.8845 33.5363 75.9447 31.3752 74.5724 29.4939C73.2001 27.6125 71.4292 26.0576 69.3862 24.94C67.3433 23.8224 65.0787 23.1699 62.7544 23.0289C60.43 22.888 58.1032 23.2622 55.9402 24.1248C55.5875 24.2773 55.2079 24.3575 54.8237 24.3607C54.4395 24.364 54.0585 24.2902 53.7033 24.1437C53.3481 23.9972 53.0259 23.7811 52.7557 23.5079C52.4854 23.2348 52.2727 22.9103 52.13 22.5536C51.9873 22.1968 51.9176 21.8151 51.9249 21.431C51.9322 21.0469 52.0165 20.6681 52.1727 20.3171C52.3289 19.966 52.5538 19.6499 52.8343 19.3873C53.1147 19.1246 53.445 18.9209 53.8055 18.7881C58.7557 16.8139 64.2617 16.7428 69.2613 18.5887C74.2608 20.4345 78.3997 24.0664 80.8794 28.7838C83.3591 33.5012 84.0039 38.9697 82.6895 44.1345C81.3751 49.2993 78.1946 53.7943 73.7616 56.7525C80.7317 59.3214 86.6843 64.0752 90.7313 70.3045C91.1477 70.9431 91.2934 71.721 91.1364 72.467C90.9794 73.2131 90.5325 73.8662 89.8939 74.2828Z" fill="#00A360"/>
</svg>
