<svg width="112" height="112" viewBox="0 0 112 112" fill="none" xmlns="http://www.w3.org/2000/svg">
<path opacity="0.2" d="M33.2502 54.25L57.7502 78.75L45.0627 91.4375C43.0936 93.4065 40.423 94.5126 37.6383 94.5126C34.8537 94.5126 32.1831 93.4065 30.214 91.4375L20.5627 81.7731C18.5977 79.8045 17.4941 77.1367 17.4941 74.3553C17.4941 71.5738 18.5977 68.906 20.5627 66.9375L33.2502 54.25ZM91.4377 30.2268L81.7733 20.5625C79.8048 18.5975 77.137 17.4939 74.3555 17.4939C71.5741 17.4939 68.9063 18.5975 66.9377 20.5625L54.2502 33.25L78.7502 57.75L91.4377 45.0625C93.4027 43.0939 94.5063 40.4261 94.5063 37.6447C94.5063 34.8632 93.4027 32.1954 91.4377 30.2268Z" fill="#00A360"/>
<path d="M65.4762 60.5238C65.1512 60.1984 64.7652 59.9402 64.3403 59.7641C63.9154 59.588 63.4599 59.4973 63 59.4973C62.54 59.4973 62.0846 59.588 61.6597 59.7641C61.2348 59.9402 60.8488 60.1984 60.5237 60.5238L52.5 68.5519L43.4481 59.5001L51.4762 51.4763C52.133 50.8196 52.5019 49.9288 52.5019 49.0001C52.5019 48.0713 52.133 47.1806 51.4762 46.5238C50.8195 45.8671 49.9288 45.4981 49 45.4981C48.0712 45.4981 47.1805 45.8671 46.5237 46.5238L38.5 54.5519L30.4762 46.5238C29.8195 45.8671 28.9288 45.4981 28 45.4981C27.0712 45.4981 26.1805 45.8671 25.5237 46.5238C24.867 47.1806 24.498 48.0713 24.498 49.0001C24.498 49.9288 24.867 50.8196 25.5237 51.4763L28.3019 54.2501L18.0994 64.4482C16.799 65.7482 15.7675 67.2917 15.0637 68.9905C14.36 70.6893 13.9977 72.51 13.9977 74.3488C13.9977 76.1876 14.36 78.0084 15.0637 79.7071C15.7675 81.4059 16.799 82.9494 18.0994 84.2494L20.4531 86.5988L8.02374 99.0238C7.69856 99.349 7.44061 99.7351 7.26462 100.16C7.08863 100.585 6.99805 101.04 6.99805 101.5C6.99805 101.96 7.08863 102.415 7.26462 102.84C7.44061 103.265 7.69856 103.651 8.02374 103.976C8.68049 104.633 9.57122 105.002 10.5 105.002C10.9599 105.002 11.4153 104.911 11.8401 104.735C12.265 104.559 12.6511 104.302 12.9762 103.976L25.4012 91.5469L27.7506 93.9007C29.0507 95.201 30.5942 96.2326 32.2929 96.9363C33.9917 97.6401 35.8125 98.0023 37.6512 98.0023C39.49 98.0023 41.3108 97.6401 43.0095 96.9363C44.7083 96.2326 46.2518 95.201 47.5519 93.9007L57.75 83.6982L60.5237 86.4763C60.8489 86.8015 61.235 87.0594 61.6599 87.2354C62.0847 87.4114 62.5401 87.502 63 87.502C63.4599 87.502 63.9153 87.4114 64.3401 87.2354C64.765 87.0594 65.1511 86.8015 65.4762 86.4763C65.8014 86.1511 66.0594 85.7651 66.2354 85.3402C66.4114 84.9153 66.5019 84.4599 66.5019 84.0001C66.5019 83.5402 66.4114 83.0848 66.2354 82.6599C66.0594 82.2351 65.8014 81.849 65.4762 81.5238L57.4481 73.5001L65.4762 65.4763C65.8017 65.1513 66.0598 64.7652 66.236 64.3404C66.4121 63.9155 66.5027 63.46 66.5027 63.0001C66.5027 62.5401 66.4121 62.0847 66.236 61.6598C66.0598 61.2349 65.8017 60.8489 65.4762 60.5238ZM42.5994 88.9613C41.2867 90.2731 39.507 91.0099 37.6512 91.0099C35.7955 91.0099 34.0157 90.2731 32.7031 88.9613L23.0519 79.2969C21.7401 77.9843 21.0032 76.2045 21.0032 74.3488C21.0032 72.4931 21.7401 70.7133 23.0519 69.4007L33.25 59.1982L52.8019 78.7501L42.5994 88.9613ZM103.976 8.02382C103.651 7.6984 103.265 7.44024 102.84 7.26411C102.415 7.08797 101.96 6.99731 101.5 6.99731C101.04 6.99731 100.585 7.08797 100.16 7.26411C99.7348 7.44024 99.3488 7.6984 99.0237 8.02382L86.5987 20.4532L84.2494 18.0994C81.6209 15.4786 78.0606 14.0068 74.3487 14.0068C70.6369 14.0068 67.0766 15.4786 64.4481 18.0994L54.25 28.3019L51.4762 25.5238C50.8195 24.8671 49.9288 24.4981 49 24.4981C48.0712 24.4981 47.1805 24.8671 46.5237 25.5238C45.867 26.1806 45.498 27.0713 45.498 28.0001C45.498 28.9288 45.867 29.8196 46.5237 30.4763L81.5237 65.4763C81.8489 65.8015 82.235 66.0594 82.6599 66.2354C83.0847 66.4114 83.5401 66.502 84 66.502C84.4599 66.502 84.9153 66.4114 85.3401 66.2354C85.765 66.0594 86.1511 65.8015 86.4762 65.4763C86.8014 65.1511 87.0594 64.7651 87.2354 64.3402C87.4114 63.9153 87.5019 63.4599 87.5019 63.0001C87.5019 62.5402 87.4114 62.0848 87.2354 61.6599C87.0594 61.2351 86.8014 60.849 86.4762 60.5238L83.6981 57.7501L93.9006 47.5519C95.201 46.2519 96.2325 44.7084 96.9363 43.0096C97.64 41.3109 98.0023 39.4901 98.0023 37.6513C98.0023 35.8125 97.64 33.9918 96.9363 32.293C96.2325 30.5942 95.201 29.0508 93.9006 27.7507L91.5469 25.4013L103.976 12.9763C104.302 12.6513 104.56 12.2653 104.736 11.8404C104.912 11.4155 105.003 10.96 105.003 10.5001C105.003 10.0401 104.912 9.58467 104.736 9.15978C104.56 8.73488 104.302 8.34887 103.976 8.02382ZM88.9481 42.5863L78.75 52.8019L59.1981 33.2501L69.4006 23.0519C70.7132 21.7402 72.493 21.0033 74.3487 21.0033C76.2045 21.0033 77.9842 21.7402 79.2969 23.0519L88.9481 32.6769C89.6016 33.3274 90.1201 34.1005 90.4739 34.9519C90.8278 35.8033 91.0099 36.7162 91.0099 37.6382C91.0099 38.5602 90.8278 39.4731 90.4739 40.3245C90.1201 41.1759 89.6016 41.949 88.9481 42.5994V42.5863Z" fill="#00A360"/>
</svg>
