<svg width="88" height="88" viewBox="0 0 88 88" fill="none" xmlns="http://www.w3.org/2000/svg">
<path opacity="0.2" d="M21.9348 66.0652C5.47266 38.6305 27.4348 11.1958 74.0611 13.939C76.8042 60.579 49.3695 82.5274 21.9348 66.0652Z" fill="#00A360"/>
<path d="M76.811 13.774C76.7717 13.1012 76.4867 12.4663 76.0102 11.9898C75.5337 11.5132 74.8988 11.2283 74.226 11.189C48.0563 9.65241 27.0944 17.5312 18.1569 32.3124C15.0589 37.3687 13.5323 43.2311 13.7707 49.1562C13.9666 54.6287 15.5616 60.1562 18.511 65.6046L11.8044 72.3077C11.2884 72.8237 10.9985 73.5236 10.9985 74.2533C10.9985 74.9831 11.2884 75.683 11.8044 76.199C12.3205 76.715 13.0203 77.0049 13.7501 77.0049C14.4798 77.0049 15.1797 76.715 15.6957 76.199L22.3988 69.4924C27.8438 72.4384 33.3748 74.0333 38.8438 74.2293C39.2265 74.243 39.6081 74.2499 39.9885 74.2499C45.5289 74.2647 50.9643 72.7389 55.6876 69.843C70.4688 60.9055 78.351 39.9471 76.811 13.774ZM52.8516 65.1405C45.0313 69.8774 35.7741 69.953 26.4826 65.4052L56.9491 34.9421C57.2046 34.6866 57.4073 34.3833 57.5456 34.0494C57.6839 33.7156 57.755 33.3578 57.755 32.9965C57.755 32.6351 57.6839 32.2773 57.5456 31.9435C57.4073 31.6097 57.2046 31.3064 56.9491 31.0508C56.6936 30.7953 56.3903 30.5927 56.0565 30.4544C55.7226 30.3161 55.3648 30.2449 55.0035 30.2449C54.6422 30.2449 54.2844 30.3161 53.9505 30.4544C53.6167 30.5927 53.3134 30.7953 53.0579 31.0508L22.5948 61.5312C18.0607 52.2499 18.126 42.9687 22.8594 35.1621C30.4529 22.6255 48.5032 15.7608 71.4347 16.579C72.2563 39.4933 65.3882 57.5471 52.8516 65.1405Z" fill="#00A360"/>
</svg>
