<svg width="144" height="145" viewBox="0 0 144 145" fill="none" xmlns="http://www.w3.org/2000/svg">
<path d="M136.924 41.5809C144.557 57.544 146.008 75.7691 140.994 92.7385C135.981 109.708 124.859 124.219 109.776 133.47C94.6924 142.722 76.7167 146.058 59.3181 142.836C41.9195 139.613 26.3314 130.06 15.5624 116.019C4.79333 101.979 -0.393196 84.4478 1.00382 66.8085C2.40083 49.1692 10.2823 32.6726 23.1272 20.5027C35.972 8.33281 52.8696 1.35232 70.5586 0.908522C88.2476 0.464724 105.474 6.58908 118.913 18.0996L134.496 2.50156C135.529 1.4688 136.93 0.88861 138.39 0.88861C139.851 0.88861 141.251 1.4688 142.284 2.50156C143.317 3.53431 143.897 4.93502 143.897 6.39556C143.897 7.85609 143.317 9.2568 142.284 10.2896L76.2842 76.2896C75.7729 76.8009 75.1658 77.2066 74.4976 77.4833C73.8295 77.7601 73.1134 77.9025 72.3902 77.9025C71.667 77.9025 70.9509 77.7601 70.2828 77.4833C69.6147 77.2066 69.0076 76.8009 68.4962 76.2896C67.9849 75.7782 67.5792 75.1711 67.3025 74.503C67.0257 73.8348 66.8833 73.1187 66.8833 72.3956C66.8833 71.6724 67.0257 70.9563 67.3025 70.2881C67.5792 69.62 67.9849 69.0129 68.4962 68.5016L87.5629 49.4496C82.3992 46.0313 76.2328 44.456 70.0623 44.9786C63.8918 45.5013 58.0783 48.0913 53.563 52.3294C49.0478 56.5674 46.0951 62.2054 45.1831 68.3305C44.2711 74.4557 45.4532 80.7093 48.5379 86.0789C51.6226 91.4486 56.4293 95.6199 62.1799 97.9176C67.9305 100.215 74.2883 100.505 80.2239 98.7391C86.1595 96.9735 91.3254 93.2562 94.8853 88.189C98.4451 83.1219 100.191 77.0015 99.8389 70.8189C99.7572 69.3602 100.258 67.9288 101.232 66.8396C102.206 65.7504 103.572 65.0926 105.031 65.0109C106.49 64.9292 107.921 65.4303 109.01 66.404C110.099 67.3777 110.757 68.7442 110.839 70.2029C111.34 78.9532 108.84 87.6125 103.752 94.7495C98.6649 101.887 91.2945 107.074 82.8594 109.455C74.4243 111.836 65.4294 111.267 57.3613 107.843C49.2931 104.419 42.6348 98.3444 38.4866 90.6236C34.3385 82.9027 32.949 73.9976 34.5476 65.38C36.1463 56.7623 40.6375 48.9481 47.2789 43.2289C53.9203 37.5096 62.3144 34.2275 71.0738 33.9252C79.8332 33.6229 88.4336 36.3184 95.4536 41.5662L111.096 25.9242C99.6325 16.4086 85.0581 11.4636 70.1713 12.0389C55.2845 12.6142 41.1351 18.6693 30.4407 29.0412C19.7462 39.413 13.2608 53.3704 12.23 68.2326C11.1991 83.0948 15.6956 97.8138 24.8557 109.563C34.0159 121.312 47.1938 129.262 61.8586 131.887C76.5234 134.512 91.6411 131.627 104.308 123.785C116.975 115.943 126.298 103.697 130.487 89.4005C134.675 75.1036 133.434 59.7632 127.002 46.3256C126.404 45.0142 126.345 43.5209 126.838 42.1667C127.33 40.8125 128.334 39.7055 129.634 39.0839C130.934 38.4622 132.426 38.3756 133.789 38.8425C135.152 39.3095 136.278 40.2928 136.924 41.5809Z" fill="url(#paint0_linear_34_727)"/>
<defs>
<linearGradient id="paint0_linear_34_727" x1="0.787562" y1="0.888224" x2="143.927" y2="144.02" gradientUnits="userSpaceOnUse">
<stop stop-color="#68F7BB"/>
<stop offset="1" stop-color="#00A360"/>
</linearGradient>
</defs>
</svg>
