<svg width="144" height="133" viewBox="0 0 144 133" fill="none" xmlns="http://www.w3.org/2000/svg">
<path d="M60.5899 82.9099C59.1312 82.9099 57.7323 83.4894 56.7008 84.5208C55.6694 85.5523 55.0899 86.9512 55.0899 88.4099V108.137L29.2032 82.2206C28.1751 81.1937 27.5951 79.8017 27.5899 78.3486V43.7206C32.7745 42.3819 37.2929 39.1983 40.2982 34.7666C43.3035 30.3348 44.5893 24.9591 43.9146 19.6471C43.2398 14.3351 40.651 9.45156 36.6332 5.91183C32.6154 2.37209 27.4445 0.419189 22.0899 0.419189C16.7352 0.419189 11.5644 2.37209 7.54662 5.91183C3.52884 9.45156 0.939954 14.3351 0.265244 19.6471C-0.409465 24.9591 0.876319 30.3348 3.88159 34.7666C6.88685 39.1983 11.4053 42.3819 16.5899 43.7206V78.3559C16.5785 80.5257 16.9978 82.6762 17.8236 84.6828C18.6493 86.6893 19.8652 88.512 21.4006 90.0453L47.3166 115.91H27.5899C26.1312 115.91 24.7323 116.489 23.7008 117.521C22.6694 118.552 22.0899 119.951 22.0899 121.41C22.0899 122.869 22.6694 124.268 23.7008 125.299C24.7323 126.33 26.1312 126.91 27.5899 126.91H60.5899C62.0486 126.91 63.4475 126.33 64.479 125.299C65.5104 124.268 66.0899 122.869 66.0899 121.41V88.4099C66.0899 86.9512 65.5104 85.5523 64.479 84.5208C63.4475 83.4894 62.0486 82.9099 60.5899 82.9099ZM11.0899 22.4099C11.0899 19.4925 12.2488 16.6947 14.3117 14.6318C16.3746 12.5689 19.1725 11.4099 22.0899 11.4099C25.0073 11.4099 27.8052 12.5689 29.8681 14.6318C31.931 16.6947 33.0899 19.4925 33.0899 22.4099C33.0899 25.3273 31.931 28.1252 29.8681 30.1881C27.8052 32.251 25.0073 33.4099 22.0899 33.4099C19.1725 33.4099 16.3746 32.251 14.3117 30.1881C12.2488 28.1252 11.0899 25.3273 11.0899 22.4099ZM126.59 89.0993V54.4566C126.601 52.288 126.181 50.1387 125.355 48.1335C124.53 46.1282 123.314 44.3067 121.779 42.7746L95.8632 16.9099H115.59C117.049 16.9099 118.448 16.3305 119.479 15.299C120.51 14.2676 121.09 12.8686 121.09 11.4099C121.09 9.95124 120.51 8.55229 119.479 7.52084C118.448 6.48939 117.049 5.90993 115.59 5.90993H82.5899C81.1312 5.90993 79.7323 6.48939 78.7008 7.52084C77.6694 8.55229 77.0899 9.95124 77.0899 11.4099V44.4099C77.0899 45.8686 77.6694 47.2676 78.7008 48.299C79.7323 49.3305 81.1312 49.9099 82.5899 49.9099C84.0486 49.9099 85.4475 49.3305 86.479 48.299C87.5104 47.2676 88.0899 45.8686 88.0899 44.4099V24.6833L113.977 50.5993C114.488 51.109 114.894 51.7148 115.171 52.3817C115.448 53.0487 115.59 53.7638 115.59 54.4859V89.0993C110.405 90.4379 105.887 93.6215 102.882 98.0533C99.8763 102.485 98.5905 107.861 99.2652 113.173C99.9399 118.485 102.529 123.368 106.547 126.908C110.564 130.448 115.735 132.401 121.09 132.401C126.445 132.401 131.615 130.448 135.633 126.908C139.651 123.368 142.24 118.485 142.915 113.173C143.589 107.861 142.303 102.485 139.298 98.0533C136.293 93.6215 131.775 90.4379 126.59 89.0993ZM121.09 121.41C118.173 121.41 115.375 120.251 113.312 118.188C111.249 116.125 110.09 113.327 110.09 110.41C110.09 107.493 111.249 104.695 113.312 102.632C115.375 100.569 118.173 99.4099 121.09 99.4099C124.007 99.4099 126.805 100.569 128.868 102.632C130.931 104.695 132.09 107.493 132.09 110.41C132.09 113.327 130.931 116.125 128.868 118.188C126.805 120.251 124.007 121.41 121.09 121.41Z" fill="url(#paint0_linear_34_709)"/>
<defs>
<linearGradient id="paint0_linear_34_709" x1="0.0898946" y1="0.417267" x2="131.643" y2="142.963" gradientUnits="userSpaceOnUse">
<stop stop-color="#68F7BB"/>
<stop offset="1" stop-color="#00A360"/>
</linearGradient>
</defs>
</svg>
