<svg width="144" height="139" viewBox="0 0 144 139" fill="none" xmlns="http://www.w3.org/2000/svg">
<path d="M121.5 88.9102C116.638 88.9102 111.915 90.5236 108.08 93.5009L92.1811 81.1296C93.3838 78.3796 93.9998 75.4096 93.9998 72.4102C93.9998 71.8969 93.9998 71.3909 93.9411 70.8922L103.034 67.8562C105.943 72.3523 110.392 75.6331 115.547 77.0835C120.702 78.5339 126.209 78.0543 131.035 75.7348C135.862 73.4152 139.677 69.4148 141.765 64.4836C143.852 59.5524 144.07 54.029 142.377 48.9488C140.683 43.8686 137.195 39.5804 132.566 36.8882C127.937 34.196 122.485 33.2846 117.232 34.3249C111.979 35.3652 107.286 38.2857 104.032 42.5389C100.778 46.7921 99.1879 52.0861 99.5584 57.4282L90.4651 60.4642C88.1353 56.862 84.8031 54.0195 80.8787 52.2866C76.9543 50.5537 72.6088 50.006 68.3771 50.7109L63.6764 40.0996C67.8567 36.7541 70.6735 31.9991 71.599 26.7256C72.5244 21.4521 71.495 16.0221 68.7037 11.4532C65.9123 6.88431 61.5506 3.49016 56.436 1.90684C51.3214 0.323509 45.8049 0.659689 40.9204 2.85237C36.0359 5.04506 32.1186 8.94374 29.9027 13.8178C27.6868 18.6918 27.3244 24.2066 28.8834 29.3287C30.4424 34.4508 33.8157 38.8286 38.3713 41.6417C42.9269 44.4547 48.3519 45.5099 53.6298 44.6096L58.3231 55.1916C54.3351 58.3489 51.5676 62.7933 50.4935 67.7652C49.4194 72.737 50.1055 77.9275 52.4344 82.4496L34.7611 98.1502C30.3146 95.1508 24.9269 93.8759 19.6077 94.5647C14.2886 95.2535 9.40319 97.8585 5.86734 101.892C2.3315 105.925 0.387929 111.109 0.400944 116.472C0.413958 121.836 2.38266 127.011 5.93804 131.026C9.49341 135.042 14.3914 137.624 19.7138 138.287C25.0362 138.95 30.4177 137.649 34.8496 134.628C39.2815 131.607 42.4594 127.073 43.7877 121.876C45.116 116.68 44.5036 111.177 42.0651 106.4L59.7384 90.6996C63.5666 93.276 68.1097 94.5799 72.7215 94.4258C77.3334 94.2718 81.7793 92.6677 85.4271 89.8416L101.318 102.22C100.122 104.961 99.5025 107.919 99.4998 110.91C99.4998 115.261 100.79 119.515 103.207 123.133C105.625 126.751 109.061 129.57 113.081 131.236C117.101 132.901 121.524 133.336 125.792 132.488C130.059 131.639 133.979 129.543 137.056 126.467C140.133 123.39 142.228 119.47 143.077 115.202C143.926 110.935 143.49 106.511 141.825 102.491C140.16 98.4712 137.34 95.0353 133.722 92.6179C130.104 90.2005 125.851 88.9102 121.5 88.9102ZM121.5 44.9102C124.417 44.9102 127.215 46.0691 129.278 48.132C131.341 50.1949 132.5 52.9928 132.5 55.9102C132.5 58.8276 131.341 61.6255 129.278 63.6884C127.215 65.7513 124.417 66.9102 121.5 66.9102C118.582 66.9102 115.784 65.7513 113.722 63.6884C111.659 61.6255 110.5 58.8276 110.5 55.9102C110.5 52.9928 111.659 50.1949 113.722 48.132C115.784 46.0691 118.582 44.9102 121.5 44.9102ZM38.9998 22.9102C38.9998 19.9928 40.1587 17.1949 42.2216 15.132C44.2845 13.0691 47.0824 11.9102 49.9998 11.9102C52.9171 11.9102 55.715 13.0691 57.7779 15.132C59.8408 17.1949 60.9998 19.9928 60.9998 22.9102C60.9998 25.8276 59.8408 28.6255 57.7779 30.6884C55.715 32.7513 52.9171 33.9102 49.9998 33.9102C47.0824 33.9102 44.2845 32.7513 42.2216 30.6884C40.1587 28.6255 38.9998 25.8276 38.9998 22.9102ZM22.4998 127.41C19.5824 127.41 16.7845 126.251 14.7216 124.188C12.6587 122.125 11.4998 119.328 11.4998 116.41C11.4998 113.493 12.6587 110.695 14.7216 108.632C16.7845 106.569 19.5824 105.41 22.4998 105.41C25.4171 105.41 28.215 106.569 30.2779 108.632C32.3408 110.695 33.4998 113.493 33.4998 116.41C33.4998 119.328 32.3408 122.125 30.2779 124.188C28.215 126.251 25.4171 127.41 22.4998 127.41ZM60.9998 72.4102C60.9998 69.4928 62.1587 66.6949 64.2216 64.632C66.2845 62.5691 69.0824 61.4102 71.9998 61.4102C74.9171 61.4102 77.715 62.5691 79.7779 64.632C81.8408 66.6949 82.9998 69.4928 82.9998 72.4102C82.9998 75.3276 81.8408 78.1255 79.7779 80.1884C77.715 82.2513 74.9171 83.4102 71.9998 83.4102C69.0824 83.4102 66.2845 82.2513 64.2216 80.1884C62.1587 78.1255 60.9998 75.3276 60.9998 72.4102ZM121.5 121.91C118.582 121.91 115.784 120.751 113.722 118.688C111.659 116.625 110.5 113.828 110.5 110.91C110.5 107.993 111.659 105.195 113.722 103.132C115.784 101.069 118.582 99.9102 121.5 99.9102C124.417 99.9102 127.215 101.069 129.278 103.132C131.341 105.195 132.5 107.993 132.5 110.91C132.5 113.828 131.341 116.625 129.278 118.688C127.215 120.751 124.417 121.91 121.5 121.91Z" fill="url(#paint0_linear_34_736)"/>
<defs>
<linearGradient id="paint0_linear_34_736" x1="0.397097" y1="0.910217" x2="137.846" y2="143.903" gradientUnits="userSpaceOnUse">
<stop stop-color="#68F7BB"/>
<stop offset="1" stop-color="#00A360"/>
</linearGradient>
</defs>
</svg>
