<svg width="144" height="127" viewBox="0 0 144 127" fill="none" xmlns="http://www.w3.org/2000/svg">
<path d="M138 115.91H132.5V5.90991C132.5 4.45122 131.921 3.05227 130.889 2.02082C129.858 0.989374 128.459 0.409912 127 0.409912H88.5C87.0413 0.409912 85.6424 0.989374 84.6109 2.02082C83.5795 3.05227 83 4.45122 83 5.90991V33.4099H50C48.5413 33.4099 47.1424 33.9894 46.1109 35.0208C45.0795 36.0523 44.5 37.4512 44.5 38.9099V66.4099H17C15.5413 66.4099 14.1424 66.9894 13.1109 68.0208C12.0795 69.0523 11.5 70.4512 11.5 71.9099V115.91H6C4.54131 115.91 3.14236 116.489 2.11091 117.521C1.07946 118.552 0.5 119.951 0.5 121.41C0.5 122.869 1.07946 124.268 2.11091 125.299C3.14236 126.33 4.54131 126.91 6 126.91H138C139.459 126.91 140.858 126.33 141.889 125.299C142.921 124.268 143.5 122.869 143.5 121.41C143.5 119.951 142.921 118.552 141.889 117.521C140.858 116.489 139.459 115.91 138 115.91ZM94 11.4099H121.5V115.91H94V11.4099ZM55.5 44.4099H83V115.91H55.5V44.4099ZM22.5 77.4099H44.5V115.91H22.5V77.4099Z" fill="url(#paint0_linear_34_718)"/>
<defs>
<linearGradient id="paint0_linear_34_718" x1="0.5" y1="0.409912" x2="126.054" y2="142.339" gradientUnits="userSpaceOnUse">
<stop stop-color="#68F7BB"/>
<stop offset="1" stop-color="#00A360"/>
</linearGradient>
</defs>
</svg>
