<svg width="1440" height="943" viewBox="0 0 1440 943" fill="none" xmlns="http://www.w3.org/2000/svg">
<rect width="1440" height="0.748711" transform="translate(0 29.6262)" fill="white" fill-opacity="0.28"/>
<rect width="1440" height="0.748711" transform="translate(0 76.9971)" fill="white" fill-opacity="0.28"/>
<rect width="1440" height="0.748711" transform="translate(0 124.368)" fill="white" fill-opacity="0.28"/>
<rect width="1440" height="0.748711" transform="translate(0 171.731)" fill="white" fill-opacity="0.28"/>
<rect width="1440" height="0.748711" transform="translate(0 219.103)" fill="white" fill-opacity="0.28"/>
<rect width="1440" height="0.748711" transform="translate(0 266.466)" fill="white" fill-opacity="0.28"/>
<rect width="1440" height="0.748711" transform="translate(0 313.837)" fill="white" fill-opacity="0.28"/>
<rect width="1440" height="0.748711" transform="translate(0 361.201)" fill="white" fill-opacity="0.28"/>
<rect width="1440" height="0.748711" transform="translate(0 408.571)" fill="white" fill-opacity="0.28"/>
<rect width="1440" height="0.748711" transform="translate(0 455.935)" fill="white" fill-opacity="0.28"/>
<rect width="1440" height="0.748711" transform="translate(0 503.306)" fill="white" fill-opacity="0.28"/>
<rect width="1440" height="0.748711" transform="translate(0 550.677)" fill="white" fill-opacity="0.28"/>
<rect width="1440" height="0.748711" transform="translate(0 598.04)" fill="white" fill-opacity="0.28"/>
<rect width="1440" height="0.748711" transform="translate(0 645.412)" fill="white" fill-opacity="0.28"/>
<rect width="1440" height="0.748711" transform="translate(0 692.775)" fill="white" fill-opacity="0.28"/>
<rect width="1440" height="0.748711" transform="translate(0 740.146)" fill="white" fill-opacity="0.28"/>
<rect width="1440" height="0.748711" transform="translate(0 787.51)" fill="white" fill-opacity="0.28"/>
<rect width="1440" height="0.748711" transform="translate(0 834.88)" fill="white" fill-opacity="0.28"/>
<rect width="1440" height="0.748711" transform="translate(0 882.251)" fill="white" fill-opacity="0.28"/>
<rect width="853.531" height="1.26316" transform="translate(1440 28.8774) rotate(90)" fill="white" fill-opacity="0.28"/>
<rect width="853.531" height="1.26316" transform="translate(1360.08 28.8774) rotate(90)" fill="white" fill-opacity="0.28"/>
<rect width="853.531" height="1.26316" transform="translate(1280.16 28.8774) rotate(90)" fill="white" fill-opacity="0.28"/>
<rect width="853.531" height="1.26316" transform="translate(1200.25 28.8774) rotate(90)" fill="white" fill-opacity="0.28"/>
<rect width="853.531" height="1.26316" transform="translate(1120.33 28.8774) rotate(90)" fill="white" fill-opacity="0.28"/>
<rect width="853.531" height="1.26316" transform="translate(1040.43 28.8774) rotate(90)" fill="white" fill-opacity="0.28"/>
<rect width="853.531" height="1.26316" transform="translate(960.505 28.8774) rotate(90)" fill="white" fill-opacity="0.28"/>
<rect width="853.531" height="1.26316" transform="translate(880.598 28.8774) rotate(90)" fill="white" fill-opacity="0.28"/>
<rect width="853.531" height="1.26316" transform="translate(800.678 28.8774) rotate(90)" fill="white" fill-opacity="0.28"/>
<rect width="853.531" height="1.26316" transform="translate(720.771 28.8774) rotate(90)" fill="white" fill-opacity="0.28"/>
<rect width="853.531" height="1.26316" transform="translate(640.851 28.8774) rotate(90)" fill="white" fill-opacity="0.28"/>
<rect width="853.531" height="1.26316" transform="translate(560.931 28.8774) rotate(90)" fill="white" fill-opacity="0.28"/>
<rect width="853.531" height="1.26316" transform="translate(481.023 28.8774) rotate(90)" fill="white" fill-opacity="0.28"/>
<rect width="853.531" height="1.26316" transform="translate(401.104 28.8774) rotate(90)" fill="white" fill-opacity="0.28"/>
<rect width="853.531" height="1.26316" transform="translate(321.196 28.8774) rotate(90)" fill="white" fill-opacity="0.28"/>
<rect width="853.531" height="1.26316" transform="translate(241.276 28.8774) rotate(90)" fill="white" fill-opacity="0.28"/>
<rect width="853.531" height="1.26316" transform="translate(161.368 28.8774) rotate(90)" fill="white" fill-opacity="0.28"/>
<rect width="853.531" height="1.26316" transform="translate(81.4482 28.8774) rotate(90)" fill="white" fill-opacity="0.28"/>
<rect width="853.531" height="1.26316" transform="translate(1.52832 28.8774) rotate(90)" fill="white" fill-opacity="0.28"/>
<rect width="1440" height="943" fill="url(#paint0_radial_46_2351)"/>
<defs>
<radialGradient id="paint0_radial_46_2351" cx="0" cy="0" r="1" gradientUnits="userSpaceOnUse" gradientTransform="translate(720 471.5) rotate(90) scale(471.5 720)">
<stop offset="0.2" stop-opacity="0"/>
<stop offset="1"/>
</radialGradient>
</defs>
</svg>
