<svg width="92" height="45" viewBox="0 0 92 45" fill="none" xmlns="http://www.w3.org/2000/svg">
<g clip-path="url(#clip0_290_986)">
<path d="M22.0955 12.2644H19.9697V14.3084H22.0955V12.2644Z" fill="white"/>
<path d="M22.0955 14.3081H19.9697V16.3522H22.0955V14.3081Z" fill="white"/>
<path d="M22.0955 16.3523H19.9697V18.3963H22.0955V16.3523Z" fill="white"/>
<path d="M19.9698 10.2202H17.844V12.2643H19.9698V10.2202Z" fill="white"/>
<path d="M19.9698 12.2644H17.844V14.3084H19.9698V12.2644Z" fill="white"/>
<path d="M19.9698 14.3081H17.844V16.3522H19.9698V14.3081Z" fill="white"/>
<path d="M19.9698 16.3523H17.844V18.3963H19.9698V16.3523Z" fill="white"/>
<path d="M19.9698 18.3962H17.844V20.4403H19.9698V18.3962Z" fill="white"/>
<path d="M17.8712 8.17627H15.7454V10.2203H17.8712V8.17627Z" fill="white"/>
<path d="M17.8712 10.2202H15.7454V12.2643H17.8712V10.2202Z" fill="white"/>
<path d="M17.8712 12.2644H15.7454V14.3084H17.8712V12.2644Z" fill="white"/>
<path d="M17.8712 14.3081H15.7454V16.3522H17.8712V14.3081Z" fill="white"/>
<path d="M17.8712 16.3523H15.7454V18.3963H17.8712V16.3523Z" fill="white"/>
<path d="M17.8712 18.3962H15.7454V20.4403H17.8712V18.3962Z" fill="white"/>
<path d="M17.8712 20.4404H15.7454V22.4845H17.8712V20.4404Z" fill="white"/>
<path d="M28.4456 20.4404H26.3198V22.4845H28.4456V20.4404Z" fill="white"/>
<path d="M28.4456 22.4844H26.3198V24.5284H28.4456V22.4844Z" fill="white"/>
<path d="M30.5442 22.4844H28.4185V24.5284H30.5442V22.4844Z" fill="white"/>
<path d="M28.4456 24.5283H26.3198V26.5723H28.4456V24.5283Z" fill="white"/>
<path d="M26.3198 18.3962H24.1941V20.4403H26.3198V18.3962Z" fill="white"/>
<path d="M26.3198 20.4404H24.1941V22.4845H26.3198V20.4404Z" fill="white"/>
<path d="M26.3198 22.4844H24.1941V24.5284H26.3198V22.4844Z" fill="white"/>
<path d="M24.2213 16.3523H22.0955V18.3963H24.2213V16.3523Z" fill="white"/>
<path d="M24.2213 18.3962H22.0955V20.4403H24.2213V18.3962Z" fill="white"/>
<path d="M28.4456 4.08813H26.3198V6.13216H28.4456V4.08813Z" fill="white"/>
<path d="M28.4456 6.13208H26.3198V8.17611H28.4456V6.13208Z" fill="white"/>
<path d="M30.5442 6.13208H28.4185V8.17611H30.5442V6.13208Z" fill="white"/>
<path d="M28.4456 8.17627H26.3198V10.2203H28.4456V8.17627Z" fill="white"/>
<path d="M26.3198 6.13208H24.1941V8.17611H26.3198V6.13208Z" fill="white"/>
<path d="M26.3198 8.17627H24.1941V10.2203H26.3198V8.17627Z" fill="white"/>
<path d="M26.3198 10.2202H24.1941V12.2643H26.3198V10.2202Z" fill="white"/>
<path d="M24.2213 10.2202H22.0955V12.2643H24.2213V10.2202Z" fill="white"/>
<path d="M24.2213 12.2644H22.0955V14.3084H24.2213V12.2644Z" fill="white"/>
<path d="M36.8943 12.2644H34.7686V14.3084H36.8943V12.2644Z" fill="white"/>
<path d="M36.8943 14.3081H34.7686V16.3522H36.8943V14.3081Z" fill="white"/>
<path d="M39.02 14.3081H36.8943V16.3522H39.02V14.3081Z" fill="white"/>
<path d="M36.8943 16.3523H34.7686V18.3963H36.8943V16.3523Z" fill="white"/>
<path d="M34.7957 10.2202H32.6699V12.2643H34.7957V10.2202Z" fill="white"/>
<path d="M34.7957 12.2644H32.6699V14.3084H34.7957V12.2644Z" fill="white"/>
<path d="M34.7957 14.3081H32.6699V16.3522H34.7957V14.3081Z" fill="white"/>
<path d="M34.7957 16.3523H32.6699V18.3963H34.7957V16.3523Z" fill="white"/>
<path d="M34.7957 18.3962H32.6699V20.4403H34.7957V18.3962Z" fill="white"/>
<path d="M32.6699 8.17627H30.5442V10.2203H32.6699V8.17627Z" fill="white"/>
<path d="M32.6699 10.2202H30.5442V12.2643H32.6699V10.2202Z" fill="white"/>
<path d="M32.6699 12.2644H30.5442V14.3084H32.6699V12.2644Z" fill="white"/>
<path d="M32.6699 14.3081H30.5442V16.3522H32.6699V14.3081Z" fill="white"/>
<path d="M32.6699 16.3523H30.5442V18.3963H32.6699V16.3523Z" fill="white"/>
<path d="M32.6699 18.3962H30.5442V20.4403H32.6699V18.3962Z" fill="white"/>
<path d="M32.6699 20.4404H30.5442V22.4845H32.6699V20.4404Z" fill="white"/>
<path d="M24.1941 14.3082H26.3199V12.2642H24.1941V14.3082Z" fill="white"/>
<path d="M24.1941 16.3524H26.3199V14.3083H24.1941V16.3524Z" fill="white"/>
<path d="M22.0684 16.3524H24.1942V14.3083H22.0684V16.3524Z" fill="white"/>
<path d="M24.1941 18.3963H26.3199V16.3523H24.1941V18.3963Z" fill="white"/>
<path d="M26.2927 12.2642H28.4185V10.2202H26.2927V12.2642Z" fill="white"/>
<path d="M26.2927 14.3082H28.4185V12.2642H26.2927V14.3082Z" fill="white"/>
<path d="M26.2927 16.3524H28.4185V14.3083H26.2927V16.3524Z" fill="white"/>
<path d="M26.2927 18.3963H28.4185V16.3523H26.2927V18.3963Z" fill="white"/>
<path d="M26.2927 20.4405H28.4185V18.3965H26.2927V20.4405Z" fill="white"/>
<path d="M28.4185 10.2203H30.5443V8.17627H28.4185V10.2203Z" fill="white"/>
<path d="M28.4185 12.2642H30.5443V10.2202H28.4185V12.2642Z" fill="white"/>
<path d="M28.4185 14.3082H30.5443V12.2642H28.4185V14.3082Z" fill="white"/>
<path d="M28.4185 16.3524H30.5443V14.3083H28.4185V16.3524Z" fill="white"/>
<path d="M28.4185 18.3963H30.5443V16.3523H28.4185V18.3963Z" fill="white"/>
<path d="M28.4185 20.4405H30.5443V18.3965H28.4185V20.4405Z" fill="white"/>
<path d="M28.4185 22.4843H30.5443V20.4402H28.4185V22.4843Z" fill="white"/>
<path d="M66.5462 10.2202H64.4204V12.2643H66.5462V10.2202Z" fill="white"/>
<path d="M66.5462 12.2644H64.4204V14.3084H66.5462V12.2644Z" fill="white"/>
<path d="M66.5462 14.3081H64.4204V16.3522H66.5462V14.3081Z" fill="white"/>
<path d="M66.5462 16.3523H64.4204V18.3963H66.5462V16.3523Z" fill="white"/>
<path d="M66.5462 18.3962H64.4204V20.4403H66.5462V18.3962Z" fill="white"/>
<path d="M64.4205 8.17627H62.2947V10.2203H64.4205V8.17627Z" fill="white"/>
<path d="M64.4205 10.2202H62.2947V12.2643H64.4205V10.2202Z" fill="white"/>
<path d="M64.4205 12.2644H62.2947V14.3084H64.4205V12.2644Z" fill="white"/>
<path d="M64.4205 14.3081H62.2947V16.3522H64.4205V14.3081Z" fill="white"/>
<path d="M64.4205 16.3523H62.2947V18.3963H64.4205V16.3523Z" fill="white"/>
<path d="M64.4205 18.3962H62.2947V20.4403H64.4205V18.3962Z" fill="white"/>
<path d="M64.4205 20.4404H62.2947V22.4845H64.4205V20.4404Z" fill="white"/>
<path d="M62.2946 8.17627H60.1689V10.2203H62.2946V8.17627Z" fill="white"/>
<path d="M62.2946 6.13208H60.1689V8.17611H62.2946V6.13208Z" fill="white"/>
<path d="M62.2946 22.4844H60.1689V24.5284H62.2946V22.4844Z" fill="white"/>
<path d="M62.2946 10.2202H60.1689V12.2643H62.2946V10.2202Z" fill="white"/>
<path d="M62.2946 12.2644H60.1689V14.3084H62.2946V12.2644Z" fill="white"/>
<path d="M62.2946 14.3081H60.1689V16.3522H62.2946V14.3081Z" fill="white"/>
<path d="M62.2946 16.3523H60.1689V18.3963H62.2946V16.3523Z" fill="white"/>
<path d="M62.2946 18.3962H60.1689V20.4403H62.2946V18.3962Z" fill="white"/>
<path d="M62.2946 20.4404H60.1689V22.4845H62.2946V20.4404Z" fill="white"/>
<path d="M7.26958 20.4404H5.1438V22.4845H7.26958V20.4404Z" fill="white"/>
<path d="M7.26958 22.4844H5.1438V24.5284H7.26958V22.4844Z" fill="white"/>
<path d="M9.39531 22.4844H7.26953V24.5284H9.39531V22.4844Z" fill="white"/>
<path d="M7.26958 24.5283H5.1438V26.5723H7.26958V24.5283Z" fill="white"/>
<path d="M5.17096 18.3962H3.04517V20.4403H5.17096V18.3962Z" fill="white"/>
<path d="M5.17096 20.4404H3.04517V22.4845H5.17096V20.4404Z" fill="white"/>
<path d="M5.17096 22.4844H3.04517V24.5284H5.17096V22.4844Z" fill="white"/>
<path d="M5.17096 24.5283H3.04517V26.5723H5.17096V24.5283Z" fill="white"/>
<path d="M5.17096 26.5725H3.04517V28.6165H5.17096V26.5725Z" fill="white"/>
<path d="M3.04522 16.3523H0.919434V18.3963H3.04522V16.3523Z" fill="white"/>
<path d="M3.04522 18.3962H0.919434V20.4403H3.04522V18.3962Z" fill="white"/>
<path d="M3.04522 20.4404H0.919434V22.4845H3.04522V20.4404Z" fill="white"/>
<path d="M3.04522 22.4844H0.919434V24.5284H3.04522V22.4844Z" fill="white"/>
<path d="M3.04522 24.5283H0.919434V26.5723H3.04522V24.5283Z" fill="white"/>
<path d="M3.04522 26.5725H0.919434V28.6165H3.04522V26.5725Z" fill="white"/>
<path d="M3.04522 28.6162H0.919434V30.6603H3.04522V28.6162Z" fill="white"/>
<path d="M7.26958 4.08813H5.1438V6.13216H7.26958V4.08813Z" fill="white"/>
<path d="M7.26958 6.13208H5.1438V8.17611H7.26958V6.13208Z" fill="white"/>
<path d="M9.39531 6.13208H7.26953V8.17611H9.39531V6.13208Z" fill="white"/>
<path d="M7.26958 8.17627H5.1438V10.2203H7.26958V8.17627Z" fill="white"/>
<path d="M5.17096 2.04419H3.04517V4.08821H5.17096V2.04419Z" fill="white"/>
<path d="M5.17096 4.08813H3.04517V6.13216H5.17096V4.08813Z" fill="white"/>
<path d="M5.17096 6.13208H3.04517V8.17611H5.17096V6.13208Z" fill="white"/>
<path d="M5.17096 8.17627H3.04517V10.2203H5.17096V8.17627Z" fill="white"/>
<path d="M5.17096 10.2202H3.04517V12.2643H5.17096V10.2202Z" fill="white"/>
<path d="M3.04522 0H0.919434V2.04403H3.04522V0Z" fill="white"/>
<path d="M3.04522 2.04419H0.919434V4.08821H3.04522V2.04419Z" fill="white"/>
<path d="M3.04522 4.08813H0.919434V6.13216H3.04522V4.08813Z" fill="white"/>
<path d="M3.04522 6.13208H0.919434V8.17611H3.04522V6.13208Z" fill="white"/>
<path d="M3.04522 8.17627H0.919434V10.2203H3.04522V8.17627Z" fill="white"/>
<path d="M3.04522 10.2202H0.919434V12.2643H3.04522V10.2202Z" fill="white"/>
<path d="M3.04522 12.2644H0.919434V14.3084H3.04522V12.2644Z" fill="white"/>
<path d="M15.7454 12.2644H13.6196V14.3084H15.7454V12.2644Z" fill="white"/>
<path d="M15.7454 14.3081H13.6196V16.3522H15.7454V14.3081Z" fill="white"/>
<path d="M15.7454 16.3523H13.6196V18.3963H15.7454V16.3523Z" fill="white"/>
<path d="M13.6197 10.2202H11.4939V12.2643H13.6197V10.2202Z" fill="white"/>
<path d="M13.6197 12.2644H11.4939V14.3084H13.6197V12.2644Z" fill="white"/>
<path d="M13.6197 14.3081H11.4939V16.3522H13.6197V14.3081Z" fill="white"/>
<path d="M13.6197 16.3523H11.4939V18.3963H13.6197V16.3523Z" fill="white"/>
<path d="M13.6197 18.3962H11.4939V20.4403H13.6197V18.3962Z" fill="white"/>
<path d="M11.5211 8.17627H9.39526V10.2203H11.5211V8.17627Z" fill="white"/>
<path d="M11.5211 10.2202H9.39526V12.2643H11.5211V10.2202Z" fill="white"/>
<path d="M11.5211 12.2644H9.39526V14.3084H11.5211V12.2644Z" fill="white"/>
<path d="M11.5211 14.3081H9.39526V16.3522H11.5211V14.3081Z" fill="white"/>
<path d="M11.5211 16.3523H9.39526V18.3963H11.5211V16.3523Z" fill="white"/>
<path d="M11.5211 18.3962H9.39526V20.4403H11.5211V18.3962Z" fill="white"/>
<path d="M11.5211 20.4404H9.39526V22.4845H11.5211V20.4404Z" fill="white"/>
<path d="M3.01807 14.3082H5.14386V12.2642H3.01807V14.3082Z" fill="white"/>
<path d="M3.01807 16.3524H5.14386V14.3083H3.01807V16.3524Z" fill="white"/>
<path d="M0.919434 16.3524H3.04522V14.3083H0.919434V16.3524Z" fill="white"/>
<path d="M3.01807 18.3963H5.14386V16.3523H3.01807V18.3963Z" fill="white"/>
<path d="M5.1438 12.2642H7.26959V10.2202H5.1438V12.2642Z" fill="white"/>
<path d="M5.1438 14.3082H7.26959V12.2642H5.1438V14.3082Z" fill="white"/>
<path d="M5.1438 16.3524H7.26959V14.3083H5.1438V16.3524Z" fill="white"/>
<path d="M5.1438 18.3963H7.26959V16.3523H5.1438V18.3963Z" fill="white"/>
<path d="M5.1438 20.4405H7.26959V18.3965H5.1438V20.4405Z" fill="white"/>
<path d="M7.26953 10.2203H9.39531V8.17627H7.26953V10.2203Z" fill="white"/>
<path d="M7.26953 12.2642H9.39531V10.2202H7.26953V12.2642Z" fill="white"/>
<path d="M7.26953 14.3082H9.39531V12.2642H7.26953V14.3082Z" fill="white"/>
<path d="M7.26953 16.3524H9.39531V14.3083H7.26953V16.3524Z" fill="white"/>
<path d="M7.26953 18.3963H9.39531V16.3523H7.26953V18.3963Z" fill="white"/>
<path d="M7.26953 20.4405H9.39531V18.3965H7.26953V20.4405Z" fill="white"/>
<path d="M7.26953 22.4843H9.39531V20.4402H7.26953V22.4843Z" fill="white"/>
<path d="M85.5693 22.4843H87.6951V20.4402H85.5693V22.4843Z" fill="white"/>
<path d="M85.5693 24.5284H87.6951V22.4844H85.5693V24.5284Z" fill="white"/>
<path d="M83.4436 24.5284H85.5694V22.4844H83.4436V24.5284Z" fill="white"/>
<path d="M85.5693 26.5723H87.6951V24.5283H85.5693V26.5723Z" fill="white"/>
<path d="M87.6677 20.4405H89.7935V18.3965H87.6677V20.4405Z" fill="white"/>
<path d="M87.6677 22.4843H89.7935V20.4402H87.6677V22.4843Z" fill="white"/>
<path d="M87.6677 24.5284H89.7935V22.4844H87.6677V24.5284Z" fill="white"/>
<path d="M87.6677 26.5723H89.7935V24.5283H87.6677V26.5723Z" fill="white"/>
<path d="M87.6677 28.6163H89.7935V26.5723H87.6677V28.6163Z" fill="white"/>
<path d="M89.7937 18.3963H91.9195V16.3523H89.7937V18.3963Z" fill="white"/>
<path d="M89.7937 20.4405H91.9195V18.3965H89.7937V20.4405Z" fill="white"/>
<path d="M89.7937 22.4843H91.9195V20.4402H89.7937V22.4843Z" fill="white"/>
<path d="M89.7937 24.5284H91.9195V22.4844H89.7937V24.5284Z" fill="white"/>
<path d="M89.7937 26.5723H91.9195V24.5283H89.7937V26.5723Z" fill="white"/>
<path d="M89.7937 28.6163H91.9195V26.5723H89.7937V28.6163Z" fill="white"/>
<path d="M89.7937 30.6605H91.9195V28.6165H89.7937V30.6605Z" fill="white"/>
<path d="M85.5693 6.13215H87.6951V4.08813H85.5693V6.13215Z" fill="white"/>
<path d="M85.5693 8.17611H87.6951V6.13208H85.5693V8.17611Z" fill="white"/>
<path d="M83.4436 8.17611H85.5694V6.13208H83.4436V8.17611Z" fill="white"/>
<path d="M85.5693 10.2203H87.6951V8.17627H85.5693V10.2203Z" fill="white"/>
<path d="M87.6677 4.08821H89.7935V2.04419H87.6677V4.08821Z" fill="white"/>
<path d="M87.6677 6.13215H89.7935V4.08813H87.6677V6.13215Z" fill="white"/>
<path d="M87.6677 8.17611H89.7935V6.13208H87.6677V8.17611Z" fill="white"/>
<path d="M87.6677 10.2203H89.7935V8.17627H87.6677V10.2203Z" fill="white"/>
<path d="M87.6677 12.2642H89.7935V10.2202H87.6677V12.2642Z" fill="white"/>
<path d="M89.7937 2.04427H91.9195V0.000244141H89.7937V2.04427Z" fill="white"/>
<path d="M89.7937 4.08821H91.9195V2.04419H89.7937V4.08821Z" fill="white"/>
<path d="M89.7937 6.13215H91.9195V4.08813H89.7937V6.13215Z" fill="white"/>
<path d="M89.7937 8.17611H91.9195V6.13208H89.7937V8.17611Z" fill="white"/>
<path d="M89.7937 10.2203H91.9195V8.17627H89.7937V10.2203Z" fill="white"/>
<path d="M89.7937 12.2642H91.9195V10.2202H89.7937V12.2642Z" fill="white"/>
<path d="M89.7937 14.3082H91.9195V12.2642H89.7937V14.3082Z" fill="white"/>
<path d="M77.0935 14.3082H79.2193V12.2642H77.0935V14.3082Z" fill="white"/>
<path d="M77.0935 16.3524H79.2193V14.3083H77.0935V16.3524Z" fill="white"/>
<path d="M77.0935 18.3963H79.2193V16.3523H77.0935V18.3963Z" fill="white"/>
<path d="M79.2192 12.2642H81.345V10.2202H79.2192V12.2642Z" fill="white"/>
<path d="M79.2192 14.3082H81.345V12.2642H79.2192V14.3082Z" fill="white"/>
<path d="M79.2192 16.3524H81.345V14.3083H79.2192V16.3524Z" fill="white"/>
<path d="M79.2192 18.3963H81.345V16.3523H79.2192V18.3963Z" fill="white"/>
<path d="M79.2192 20.4405H81.345V18.3965H79.2192V20.4405Z" fill="white"/>
<path d="M81.345 10.2203H83.4708V8.17627H81.345V10.2203Z" fill="white"/>
<path d="M81.345 12.2642H83.4708V10.2202H81.345V12.2642Z" fill="white"/>
<path d="M81.345 14.3082H83.4708V12.2642H81.345V14.3082Z" fill="white"/>
<path d="M81.345 16.3524H83.4708V14.3083H81.345V16.3524Z" fill="white"/>
<path d="M81.345 18.3963H83.4708V16.3523H81.345V18.3963Z" fill="white"/>
<path d="M81.345 20.4405H83.4708V18.3965H81.345V20.4405Z" fill="white"/>
<path d="M81.345 22.4843H83.4708V20.4402H81.345V22.4843Z" fill="white"/>
<path d="M89.8209 12.2644H87.6951V14.3084H89.8209V12.2644Z" fill="white"/>
<path d="M89.8209 14.3081H87.6951V16.3522H89.8209V14.3081Z" fill="white"/>
<path d="M91.9195 14.3081H89.7937V16.3522H91.9195V14.3081Z" fill="white"/>
<path d="M89.8209 16.3523H87.6951V18.3963H89.8209V16.3523Z" fill="white"/>
<path d="M87.6951 10.2202H85.5693V12.2643H87.6951V10.2202Z" fill="white"/>
<path d="M87.6951 12.2644H85.5693V14.3084H87.6951V12.2644Z" fill="white"/>
<path d="M87.6951 14.3081H85.5693V16.3522H87.6951V14.3081Z" fill="white"/>
<path d="M87.6951 16.3523H85.5693V18.3963H87.6951V16.3523Z" fill="white"/>
<path d="M87.6951 18.3962H85.5693V20.4403H87.6951V18.3962Z" fill="white"/>
<path d="M85.5967 8.17627H83.4709V10.2203H85.5967V8.17627Z" fill="white"/>
<path d="M85.5967 10.2202H83.4709V12.2643H85.5967V10.2202Z" fill="white"/>
<path d="M85.5967 12.2644H83.4709V14.3084H85.5967V12.2644Z" fill="white"/>
<path d="M85.5967 14.3081H83.4709V16.3522H85.5967V14.3081Z" fill="white"/>
<path d="M85.5967 16.3523H83.4709V18.3963H85.5967V16.3523Z" fill="white"/>
<path d="M85.5967 18.3962H83.4709V20.4403H85.5967V18.3962Z" fill="white"/>
<path d="M85.5967 20.4404H83.4709V22.4845H85.5967V20.4404Z" fill="white"/>
<path d="M38.9929 14.3082H41.1187V12.2642H38.9929V14.3082Z" fill="white"/>
<path d="M38.9929 16.3524H41.1187V14.3083H38.9929V16.3524Z" fill="white"/>
<path d="M38.9929 18.3963H41.1187V16.3523H38.9929V18.3963Z" fill="white"/>
<path d="M41.1187 12.2642H43.2445V10.2202H41.1187V12.2642Z" fill="white"/>
<path d="M41.1187 14.3082H43.2445V12.2642H41.1187V14.3082Z" fill="white"/>
<path d="M41.1187 16.3524H43.2445V14.3083H41.1187V16.3524Z" fill="white"/>
<path d="M41.1187 18.3963H43.2445V16.3523H41.1187V18.3963Z" fill="white"/>
<path d="M41.1187 20.4405H43.2445V18.3965H41.1187V20.4405Z" fill="white"/>
<path d="M43.2444 10.2203H45.3701V8.17627H43.2444V10.2203Z" fill="white"/>
<path d="M43.2444 12.2642H45.3701V10.2202H43.2444V12.2642Z" fill="white"/>
<path d="M43.2444 14.3082H45.3701V12.2642H43.2444V14.3082Z" fill="white"/>
<path d="M43.2444 16.3524H45.3701V14.3083H43.2444V16.3524Z" fill="white"/>
<path d="M43.2444 18.3963H45.3701V16.3523H43.2444V18.3963Z" fill="white"/>
<path d="M43.2444 20.4405H45.3701V18.3965H43.2444V20.4405Z" fill="white"/>
<path d="M43.2444 22.4843H45.3701V20.4402H43.2444V22.4843Z" fill="white"/>
<path d="M68.6448 14.3081H66.519V16.3522H68.6448V14.3081Z" fill="white"/>
<path d="M68.6448 14.3082H70.7706V12.2642H68.6448V14.3082Z" fill="white"/>
<path d="M68.6448 16.3524H70.7706V14.3083H68.6448V16.3524Z" fill="white"/>
<path d="M68.6448 18.3963H70.7706V16.3523H68.6448V18.3963Z" fill="white"/>
<path d="M70.7434 12.2642H72.8692V10.2202H70.7434V12.2642Z" fill="white"/>
<path d="M70.7434 14.3082H72.8692V12.2642H70.7434V14.3082Z" fill="white"/>
<path d="M70.7434 16.3524H72.8692V14.3083H70.7434V16.3524Z" fill="white"/>
<path d="M70.7434 18.3963H72.8692V16.3523H70.7434V18.3963Z" fill="white"/>
<path d="M70.7434 20.4405H72.8692V18.3965H70.7434V20.4405Z" fill="white"/>
<path d="M72.8691 10.2203H74.9949V8.17627H72.8691V10.2203Z" fill="white"/>
<path d="M72.8691 12.2642H74.9949V10.2202H72.8691V12.2642Z" fill="white"/>
<path d="M72.8691 14.3082H74.9949V12.2642H72.8691V14.3082Z" fill="white"/>
<path d="M72.8691 16.3524H74.9949V14.3083H72.8691V16.3524Z" fill="white"/>
<path d="M72.8691 18.3963H74.9949V16.3523H72.8691V18.3963Z" fill="white"/>
<path d="M72.8691 20.4405H74.9949V18.3965H72.8691V20.4405Z" fill="white"/>
<path d="M74.9949 12.2642H77.1207V10.2202H74.9949V12.2642Z" fill="white"/>
<path d="M74.9949 14.3082H77.1207V12.2642H74.9949V14.3082Z" fill="white"/>
<path d="M74.9949 16.3524H77.1207V14.3083H74.9949V16.3524Z" fill="white"/>
<path d="M74.9949 18.3963H77.1207V16.3523H74.9949V18.3963Z" fill="white"/>
<path d="M74.9949 20.4405H77.1207V18.3965H74.9949V20.4405Z" fill="white"/>
<path d="M72.8691 22.4843H74.9949V20.4402H72.8691V22.4843Z" fill="white"/>
<path d="M53.8188 22.4843H55.9445V20.4402H53.8188V22.4843Z" fill="white"/>
<path d="M53.8188 24.5284H55.9445V22.4844H53.8188V24.5284Z" fill="white"/>
<path d="M51.6931 24.5284H53.8189V22.4844H51.6931V24.5284Z" fill="white"/>
<path d="M53.8188 26.5723H55.9445V24.5283H53.8188V26.5723Z" fill="white"/>
<path d="M55.9446 20.4405H58.0703V18.3965H55.9446V20.4405Z" fill="white"/>
<path d="M55.9446 22.4843H58.0703V20.4402H55.9446V22.4843Z" fill="white"/>
<path d="M55.9446 24.5284H58.0703V22.4844H55.9446V24.5284Z" fill="white"/>
<path d="M55.9446 26.5723H58.0703V24.5283H55.9446V26.5723Z" fill="white"/>
<path d="M55.9446 28.6163H58.0703V26.5723H55.9446V28.6163Z" fill="white"/>
<path d="M58.0432 18.3963H60.169V16.3523H58.0432V18.3963Z" fill="white"/>
<path d="M58.0432 20.4405H60.169V18.3965H58.0432V20.4405Z" fill="white"/>
<path d="M58.0432 22.4843H60.169V20.4402H58.0432V22.4843Z" fill="white"/>
<path d="M58.0432 24.5284H60.169V22.4844H58.0432V24.5284Z" fill="white"/>
<path d="M58.0432 26.5723H60.169V24.5283H58.0432V26.5723Z" fill="white"/>
<path d="M58.0432 28.6163H60.169V26.5723H58.0432V28.6163Z" fill="white"/>
<path d="M58.0432 30.6605H60.169V28.6165H58.0432V30.6605Z" fill="white"/>
<path d="M53.8188 6.13215H55.9445V4.08813H53.8188V6.13215Z" fill="white"/>
<path d="M53.8188 8.17611H55.9445V6.13208H53.8188V8.17611Z" fill="white"/>
<path d="M51.6931 8.17611H53.8189V6.13208H51.6931V8.17611Z" fill="white"/>
<path d="M53.8188 10.2203H55.9445V8.17627H53.8188V10.2203Z" fill="white"/>
<path d="M55.9446 4.08821H58.0703V2.04419H55.9446V4.08821Z" fill="white"/>
<path d="M55.9446 6.13215H58.0703V4.08813H55.9446V6.13215Z" fill="white"/>
<path d="M55.9446 8.17611H58.0703V6.13208H55.9446V8.17611Z" fill="white"/>
<path d="M55.9446 10.2203H58.0703V8.17627H55.9446V10.2203Z" fill="white"/>
<path d="M55.9446 12.2642H58.0703V10.2202H55.9446V12.2642Z" fill="white"/>
<path d="M58.0432 2.04427H60.169V0.000244141H58.0432V2.04427Z" fill="white"/>
<path d="M58.0432 4.08821H60.169V2.04419H58.0432V4.08821Z" fill="white"/>
<path d="M58.0432 6.13215H60.169V4.08813H58.0432V6.13215Z" fill="white"/>
<path d="M58.0432 8.17611H60.169V6.13208H58.0432V8.17611Z" fill="white"/>
<path d="M58.0432 10.2203H60.169V8.17627H58.0432V10.2203Z" fill="white"/>
<path d="M58.0432 12.2642H60.169V10.2202H58.0432V12.2642Z" fill="white"/>
<path d="M58.0432 14.3082H60.169V12.2642H58.0432V14.3082Z" fill="white"/>
<path d="M45.343 14.3082H47.4688V12.2642H45.343V14.3082Z" fill="white"/>
<path d="M45.343 16.3524H47.4688V14.3083H45.343V16.3524Z" fill="white"/>
<path d="M45.343 18.3963H47.4688V16.3523H45.343V18.3963Z" fill="white"/>
<path d="M47.4688 12.2642H49.5944V10.2202H47.4688V12.2642Z" fill="white"/>
<path d="M47.4688 14.3082H49.5944V12.2642H47.4688V14.3082Z" fill="white"/>
<path d="M47.4688 16.3524H49.5944V14.3083H47.4688V16.3524Z" fill="white"/>
<path d="M47.4688 18.3963H49.5944V16.3523H47.4688V18.3963Z" fill="white"/>
<path d="M47.4688 20.4405H49.5944V18.3965H47.4688V20.4405Z" fill="white"/>
<path d="M49.5945 10.2203H51.7202V8.17627H49.5945V10.2203Z" fill="white"/>
<path d="M49.5945 12.2642H51.7202V10.2202H49.5945V12.2642Z" fill="white"/>
<path d="M49.5945 14.3082H51.7202V12.2642H49.5945V14.3082Z" fill="white"/>
<path d="M49.5945 16.3524H51.7202V14.3083H49.5945V16.3524Z" fill="white"/>
<path d="M49.5945 18.3963H51.7202V16.3523H49.5945V18.3963Z" fill="white"/>
<path d="M49.5945 20.4405H51.7202V18.3965H49.5945V20.4405Z" fill="white"/>
<path d="M49.5945 22.4843H51.7202V20.4402H49.5945V22.4843Z" fill="white"/>
<path d="M58.0704 12.2644H55.9446V14.3084H58.0704V12.2644Z" fill="white"/>
<path d="M58.0704 14.3081H55.9446V16.3522H58.0704V14.3081Z" fill="white"/>
<path d="M60.1961 14.3081H58.0703V16.3522H60.1961V14.3081Z" fill="white"/>
<path d="M58.0704 16.3523H55.9446V18.3963H58.0704V16.3523Z" fill="white"/>
<path d="M55.9446 10.2202H53.8188V12.2643H55.9446V10.2202Z" fill="white"/>
<path d="M55.9446 12.2644H53.8188V14.3084H55.9446V12.2644Z" fill="white"/>
<path d="M55.9446 14.3081H53.8188V16.3522H55.9446V14.3081Z" fill="white"/>
<path d="M55.9446 16.3523H53.8188V18.3963H55.9446V16.3523Z" fill="white"/>
<path d="M55.9446 18.3962H53.8188V20.4403H55.9446V18.3962Z" fill="white"/>
<path d="M53.846 8.17627H51.7202V10.2203H53.846V8.17627Z" fill="white"/>
<path d="M53.846 10.2202H51.7202V12.2643H53.846V10.2202Z" fill="white"/>
<path d="M53.846 12.2644H51.7202V14.3084H53.846V12.2644Z" fill="white"/>
<path d="M53.846 14.3081H51.7202V16.3522H53.846V14.3081Z" fill="white"/>
<path d="M53.846 16.3523H51.7202V18.3963H53.846V16.3523Z" fill="white"/>
<path d="M53.846 18.3962H51.7202V20.4403H53.846V18.3962Z" fill="white"/>
<path d="M53.846 20.4404H51.7202V22.4845H53.846V20.4404Z" fill="white"/>
<path d="M3.04522 34.7483H0.919434V36.7923H3.04522V34.7483Z" fill="white"/>
<path d="M3.04522 36.7925H0.919434V38.8365H3.04522V36.7925Z" fill="white"/>
<path d="M3.04522 38.8367H0.919434V40.8807H3.04522V38.8367Z" fill="white"/>
<path d="M5.17096 38.8367H3.04517V40.8807H5.17096V38.8367Z" fill="white"/>
<path d="M7.26958 38.8367H5.1438V40.8807H7.26958V38.8367Z" fill="white"/>
<path d="M9.39531 36.7925H7.26953V38.8365H9.39531V36.7925Z" fill="white"/>
<path d="M11.5211 34.7483H9.39526V36.7923H11.5211V34.7483Z" fill="white"/>
<path d="M9.39531 40.8806H7.26953V42.9246H9.39531V40.8806Z" fill="white"/>
<path d="M11.5211 42.9246H9.39526V44.9686H11.5211V42.9246Z" fill="white"/>
<path d="M15.7454 40.8806H13.6196V42.9246H15.7454V40.8806Z" fill="white"/>
<path d="M15.7454 38.8367H13.6196V40.8807H15.7454V38.8367Z" fill="white"/>
<path d="M15.7454 36.7925H13.6196V38.8365H15.7454V36.7925Z" fill="white"/>
<path d="M24.1939 40.8806H22.0681V42.9246H24.1939V40.8806Z" fill="white"/>
<path d="M24.1939 38.8367H22.0681V40.8807H24.1939V38.8367Z" fill="white"/>
<path d="M28.4456 34.7483H26.3198V36.7923H28.4456V34.7483Z" fill="white"/>
<path d="M30.5442 34.7483H28.4185V36.7923H30.5442V34.7483Z" fill="white"/>
<path d="M32.6699 34.7483H30.5442V36.7923H32.6699V34.7483Z" fill="white"/>
<path d="M32.6699 36.7925H30.5442V38.8365H32.6699V36.7925Z" fill="white"/>
<path d="M32.6699 38.8367H30.5442V40.8807H32.6699V38.8367Z" fill="white"/>
<path d="M32.6699 40.8806H30.5442V42.9246H32.6699V40.8806Z" fill="white"/>
<path d="M32.6699 42.9246H30.5442V44.9686H32.6699V42.9246Z" fill="white"/>
<path d="M34.7957 34.7483H32.6699V36.7923H34.7957V34.7483Z" fill="white"/>
<path d="M36.8943 34.7483H34.7686V36.7923H36.8943V34.7483Z" fill="white"/>
<path d="M41.1458 34.7483H39.02V36.7923H41.1458V34.7483Z" fill="white"/>
<path d="M43.2444 34.7483H41.1187V36.7923H43.2444V34.7483Z" fill="white"/>
<path d="M45.3701 34.7483H43.2444V36.7923H45.3701V34.7483Z" fill="white"/>
<path d="M45.3701 36.7925H43.2444V38.8365H45.3701V36.7925Z" fill="white"/>
<path d="M45.3701 38.8367H43.2444V40.8807H45.3701V38.8367Z" fill="white"/>
<path d="M55.9446 38.8367H53.8188V40.8807H55.9446V38.8367Z" fill="white"/>
<path d="M58.0704 38.8367H55.9446V40.8807H58.0704V38.8367Z" fill="white"/>
<path d="M60.1689 38.8367H58.0432V40.8807H60.1689V38.8367Z" fill="white"/>
<path d="M45.3701 40.8806H43.2444V42.9246H45.3701V40.8806Z" fill="white"/>
<path d="M45.3701 42.9246H43.2444V44.9686H45.3701V42.9246Z" fill="white"/>
<path d="M47.4959 34.7483H45.3701V36.7923H47.4959V34.7483Z" fill="white"/>
<path d="M49.5944 34.7483H47.4688V36.7923H49.5944V34.7483Z" fill="white"/>
<path d="M41.1458 42.9246H39.02V44.9686H41.1458V42.9246Z" fill="white"/>
<path d="M43.2444 42.9246H41.1187V44.9686H43.2444V42.9246Z" fill="white"/>
<path d="M47.4959 42.9246H45.3701V44.9686H47.4959V42.9246Z" fill="white"/>
<path d="M49.5944 42.9246H47.4688V44.9686H49.5944V42.9246Z" fill="white"/>
<path d="M83.4708 34.7483H81.345V36.7923H83.4708V34.7483Z" fill="white"/>
<path d="M85.5694 34.7483H83.4436V36.7923H85.5694V34.7483Z" fill="white"/>
<path d="M87.6951 34.7483H85.5693V36.7923H87.6951V34.7483Z" fill="white"/>
<path d="M87.6951 36.7925H85.5693V38.8365H87.6951V36.7925Z" fill="white"/>
<path d="M87.6951 38.8367H85.5693V40.8807H87.6951V38.8367Z" fill="white"/>
<path d="M87.6951 40.8806H85.5693V42.9246H87.6951V40.8806Z" fill="white"/>
<path d="M87.6951 42.9246H85.5693V44.9686H87.6951V42.9246Z" fill="white"/>
<path d="M89.8209 34.7483H87.6951V36.7923H89.8209V34.7483Z" fill="white"/>
<path d="M91.9195 34.7483H89.7937V36.7923H91.9195V34.7483Z" fill="white"/>
<path d="M83.4708 42.9246H81.345V44.9686H83.4708V42.9246Z" fill="white"/>
<path d="M85.5694 42.9246H83.4436V44.9686H85.5694V42.9246Z" fill="white"/>
<path d="M89.8209 42.9246H87.6951V44.9686H89.8209V42.9246Z" fill="white"/>
<path d="M91.9195 42.9246H89.7937V44.9686H91.9195V42.9246Z" fill="white"/>
<path d="M53.846 34.7483H51.7202V36.7923H53.846V34.7483Z" fill="white"/>
<path d="M55.9446 34.7483H53.8188V36.7923H55.9446V34.7483Z" fill="white"/>
<path d="M58.0704 34.7483H55.9446V36.7923H58.0704V34.7483Z" fill="white"/>
<path d="M53.846 36.7925H51.7202V38.8365H53.846V36.7925Z" fill="white"/>
<path d="M53.846 38.8367H51.7202V40.8807H53.846V38.8367Z" fill="white"/>
<path d="M53.846 40.8806H51.7202V42.9246H53.846V40.8806Z" fill="white"/>
<path d="M58.0704 42.9246H55.9446V44.9686H58.0704V42.9246Z" fill="white"/>
<path d="M60.1689 34.7483H58.0432V36.7923H60.1689V34.7483Z" fill="white"/>
<path d="M62.2946 34.7483H60.1689V36.7923H62.2946V34.7483Z" fill="white"/>
<path d="M62.2946 36.7925H60.1689V38.8365H62.2946V36.7925Z" fill="white"/>
<path d="M62.2946 40.8806H60.1689V42.9246H62.2946V40.8806Z" fill="white"/>
<path d="M53.846 42.9246H51.7202V44.9686H53.846V42.9246Z" fill="white"/>
<path d="M55.9446 42.9246H53.8188V44.9686H55.9446V42.9246Z" fill="white"/>
<path d="M60.1689 42.9246H58.0432V44.9686H60.1689V42.9246Z" fill="white"/>
<path d="M62.2946 42.9246H60.1689V44.9686H62.2946V42.9246Z" fill="white"/>
<path d="M72.8963 38.8367H70.7705V40.8807H72.8963V38.8367Z" fill="white"/>
<path d="M74.9949 38.8367H72.8691V40.8807H74.9949V38.8367Z" fill="white"/>
<path d="M77.1207 38.8367H74.9949V40.8807H77.1207V38.8367Z" fill="white"/>
<path d="M79.2193 38.8367H77.0935V40.8807H79.2193V38.8367Z" fill="white"/>
<path d="M70.7706 34.7483H68.6448V36.7923H70.7706V34.7483Z" fill="white"/>
<path d="M72.8963 34.7483H70.7705V36.7923H72.8963V34.7483Z" fill="white"/>
<path d="M74.9949 34.7483H72.8691V36.7923H74.9949V34.7483Z" fill="white"/>
<path d="M70.7706 36.7925H68.6448V38.8365H70.7706V36.7925Z" fill="white"/>
<path d="M70.7706 38.8367H68.6448V40.8807H70.7706V38.8367Z" fill="white"/>
<path d="M70.7706 40.8806H68.6448V42.9246H70.7706V40.8806Z" fill="white"/>
<path d="M77.1207 34.7483H74.9949V36.7923H77.1207V34.7483Z" fill="white"/>
<path d="M79.2193 34.7483H77.0935V36.7923H79.2193V34.7483Z" fill="white"/>
<path d="M79.2193 36.7925H77.0935V38.8365H79.2193V36.7925Z" fill="white"/>
<path d="M79.2193 40.8806H77.0935V42.9246H79.2193V40.8806Z" fill="white"/>
<path d="M70.7706 42.9246H68.6448V44.9686H70.7706V42.9246Z" fill="white"/>
<path d="M79.2193 42.9246H77.0935V44.9686H79.2193V42.9246Z" fill="white"/>
<path d="M66.5191 42.9246H64.3933V44.9686H66.5191V42.9246Z" fill="white"/>
<path d="M24.1939 36.7925H22.0681V38.8365H24.1939V36.7925Z" fill="white"/>
<path d="M17.8712 34.7483H15.7454V36.7923H17.8712V34.7483Z" fill="white"/>
<path d="M19.9698 34.7483H17.844V36.7923H19.9698V34.7483Z" fill="white"/>
<path d="M22.0955 34.7483H19.9697V36.7923H22.0955V34.7483Z" fill="white"/>
<path d="M17.8712 42.9246H15.7454V44.9686H17.8712V42.9246Z" fill="white"/>
<path d="M19.9698 42.9246H17.844V44.9686H19.9698V42.9246Z" fill="white"/>
<path d="M22.0955 42.9246H19.9697V44.9686H22.0955V42.9246Z" fill="white"/>
<path d="M3.04522 40.8806H0.919434V42.9246H3.04522V40.8806Z" fill="white"/>
<path d="M3.04522 42.9246H0.919434V44.9686H3.04522V42.9246Z" fill="white"/>
</g>
<defs>
<clipPath id="clip0_290_986">
<rect width="91" height="45" fill="white" transform="translate(0.919434)"/>
</clipPath>
</defs>
</svg>
